{"asset":{"generator":"Khronos glTF Blender I/O v4.2.69","version":"2.0"},"scene":0,"scenes":[{"name":"Scene","nodes":[30]}],"nodes":[{"name":"M_foot_R","rotation":[5.178094397706445e-09,-4.661160346586257e-12,-4.972144961357117e-05,1],"translation":[-0.0020116036757826805,-7.195398211479187e-06,-1.2695090845227242e-06]},{"children":[0],"name":"jnt_foot_R","rotation":[2.4359337658097502e-08,-6.139089236967266e-12,-1,3.7621017412448055e-12],"translation":[-3.795255906879902e-06,-4.129484295845032e-06,-4.925532266497612e-07]},{"children":[1],"name":"chn_foot_R","rotation":[-9.549694368615746e-12,3.410605131648481e-13,-7.447911620772629e-09,1],"translation":[1.4827919006347656,-20.191116333007812,3.574707079678774e-05]},{"children":[2],"name":"jnt_leg_R2","rotation":[4.235484141190682e-08,-9.548687103233533e-07,0.05390327423810959,0.9985461831092834],"scale":[0.9999999403953552,1,1],"translation":[20.804288864135742,5.612964741885662e-06,4.790823732037097e-05]},{"children":[3],"name":"jnt_leg_R1","rotation":[-1.838028964584737e-07,-2.4189285241504876e-08,-0.017256470397114754,0.9998511075973511],"translation":[8.017106056213379,2.238813638687134,-11.28007984161377]},{"name":"M_foot_L","rotation":[5.176389095140621e-09,6.821210263296962e-13,-4.9717724323272705e-05,1],"translation":[-0.0020134111400693655,-4.839734174311161e-06,-8.421484380960464e-07]},{"children":[5],"name":"jnt_foot_L","rotation":[2.435569967929041e-08,-6.139089236967266e-12,-1,3.7618796966398804e-12],"translation":[-2.9675429686903954e-06,-6.246729753911495e-06,-6.495974957942963e-08]},{"children":[6],"name":"chn_foot_L","rotation":[-1.9326762412674725e-12,3.865352482534945e-12,-3.72262198844453e-09,1],"translation":[1.4827948808670044,-20.191116333007812,-4.3934560380876064e-05]},{"children":[7],"name":"jnt_leg_L2","rotation":[6.523853812723246e-08,-9.561044862493873e-07,0.05390327423810959,0.9985461831092834],"scale":[0.9999999403953552,1,1],"translation":[20.80428695678711,3.6422861739993095e-06,4.6447457862086594e-05]},{"children":[8],"name":"jnt_leg_L1","rotation":[-2.0672013079092721e-07,-2.379632491056327e-08,-0.017256470397114754,0.9998511075973511],"translation":[8.017062187194824,2.238806962966919,11.280115127563477]},{"children":[4,9],"name":"jnt_waist","rotation":[-0.499999463558197,0.4999518096446991,-0.500000536441803,0.5000481009483337],"scale":[0.9999999403953552,0.9999998211860657,0.9999998807907104],"translation":[-5.507088931331015e-18,3.814697265625e-06,-4.547473508864641e-13]},{"name":"M_hand1_R","rotation":[-2.472688937285583e-12,3.069544618483633e-12,-3.6788300405987684e-08,1],"scale":[1,0.9999999403953552,0.9999999403953552],"translation":[1.0346993803977966e-06,1.6549602150917053e-06,5.5618875194340944e-06]},{"children":[11],"name":"jnt_hand_R","rotation":[4.030245861486037e-07,1.0496282811800484e-06,0.11860324442386627,0.9929417371749878],"scale":[1,1.0000001192092896,1],"translation":[11.997604370117188,0.005378656089305878,-1.9114522729068995e-05]},{"children":[12],"name":"jnt_arm_R2","rotation":[-5.794506432721391e-05,-3.7895522837061435e-05,-0.2056100070476532,0.9786340594291687],"scale":[1,1.0000001192092896,1],"translation":[13.656604766845703,-3.8847247196827084e-07,5.607545972452499e-06]},{"children":[13],"name":"jnt_arm_R1","rotation":[0.7005776762962341,0.09562326222658157,0.20487818121910095,0.6768101453781128],"scale":[0.9999998807907104,0.9999999403953552,0.9999998807907104],"translation":[17.779993057250977,-0.4237731993198395,3.396158218383789]},{"children":[14],"name":"jnt_sldr_R","rotation":[0.38192930817604065,0.5950884819030762,-0.5950871706008911,0.3819306492805481],"scale":[1,0.9999999403953552,1],"translation":[29.89669418334961,4.768399230670184e-05,0.0484105721116066]},{"name":"eff_sldr_L","rotation":[4.072717274539173e-09,-1.7338606994599104e-08,1.1920515419205913e-07,1],"scale":[1,1,1.0000001192092896],"translation":[17.700597763061523,4.847485342907021e-06,-1.6607576981186867e-05]},{"name":"M_hand1_L","rotation":[3.84708541065204e-13,-2.574607194105738e-13,-1.8160751125151364e-08,1],"translation":[-3.2082898542284966e-06,-9.828495421970729e-07,-2.724669684539549e-06]},{"children":[17],"name":"jnt_hand_L","rotation":[1.905572617033613e-06,-1.1251929663558258e-06,0.1186031922698021,0.9929417371749878],"scale":[1,0.9999999403953552,1],"translation":[11.99759578704834,0.005376884713768959,4.381706276035402e-06]},{"children":[18],"name":"jnt_arm_L2","rotation":[-3.051194426006987e-07,6.566468186974816e-07,-0.2054693102836609,0.9786635637283325],"scale":[0.9999999403953552,1,1],"translation":[13.65660285949707,-5.735524155170424e-06,7.3777864599833265e-06]},{"children":[19],"name":"jnt_arm_L1","rotation":[-0.7005779147148132,-0.0956229716539383,0.2048778086900711,0.6768101453781128],"scale":[0.9999999403953552,1.0000001192092896,0.9999999403953552],"translation":[17.780000686645508,-0.42376524209976196,-3.396146297454834]},{"children":[16,20],"name":"jnt_sldr_L","rotation":[-0.3819292485713959,-0.5950884222984314,-0.5950871706008911,0.38193076848983765],"scale":[0.9999998211860657,0.9999998211860657,1],"translation":[29.896686553955078,4.959099896950647e-05,-0.04841412976384163]},{"name":"M_head_cap1","rotation":[1.3697437281634528e-12,2.8688550202105034e-08,-4.1777336798332065e-12,1],"translation":[5.519229489436839e-06,4.925774192088284e-06,-1.266926119569689e-09]},{"name":"M_head","rotation":[1.3697437281634528e-12,2.8688550202105034e-08,-4.1777336798332065e-12,1],"translation":[5.519229489436839e-06,4.925774192088284e-06,-1.266926119569689e-09]},{"children":[22,23],"name":"jnt_head","rotation":[1.913939058795222e-06,-1,1.2514465197455138e-06,7.549790126404332e-08],"translation":[2.999929189682007,38.999996185302734,-1.7843717614596244e-07]},{"children":[15,21,24],"name":"jnt_chest","rotation":[7.850700534106636e-09,-3.429537542842809e-08,0.7070716619491577,0.7071418762207031],"translation":[4.656613428188905e-10,0,5.860695077435389e-17]},{"children":[25],"name":"chn_chest","rotation":[1.256233293523432e-15,0.707004725933075,1.1799889992048754e-15,0.7072088718414307],"scale":[0.9999999403953552,1,0.9999999403953552],"translation":[3.0195065038511873e-21,-3.814697265625e-06,0]},{"children":[10,26],"name":"center","rotation":[-3.339083160360315e-14,3.197442310920451e-14,-1.127209279704311e-21,1],"translation":[-1.3552527156068805e-20,57.99999237060547,2.2737367544323206e-13]},{"children":[27],"name":"mdl1","rotation":[-8.557136332854043e-09,1.7114272665708086e-08,-2.928983286277023e-16,1]},{"mesh":0,"name":"Mesh_0","skin":0},{"children":[29,28],"name":"Armature"}],"materials":[{"name":"_mat_head","pbrMetallicRoughness":{"baseColorTexture":{"index":0},"metallicFactor":0.0,"roughnessFactor":1.0}},{"name":"_mat_head(3)","pbrMetallicRoughness":{"baseColorTexture":{"index":1},"metallicFactor":0.0,"roughnessFactor":1.0}},{"name":"_mat_head(4)","pbrMetallicRoughness":{"baseColorTexture":{"index":2},"metallicFactor":0.0,"roughnessFactor":1.0}},{"doubleSided":true,"name":"_mat_head(2)","pbrMetallicRoughness":{"baseColorTexture":{"index":3},"metallicFactor":0.0,"roughnessFactor":1.0}},{"name":"_mat_head(5)","pbrMetallicRoughness":{"baseColorTexture":{"index":4},"metallicFactor":0.0,"roughnessFactor":1.0}},{"name":"_mat_head(6)","pbrMetallicRoughness":{"baseColorTexture":{"index":5},"metallicFactor":0.0,"roughnessFactor":1.0}},{"name":"_mat_head(7)","pbrMetallicRoughness":{"baseColorTexture":{"index":6},"metallicFactor":0.0,"roughnessFactor":1.0}},{"name":"_mat_eye_L","pbrMetallicRoughness":{"baseColorTexture":{"index":7},"metallicFactor":0.0,"roughnessFactor":1.0}},{"name":"_mat_head(8)","pbrMetallicRoughness":{"baseColorTexture":{"index":8},"metallicFactor":0.0,"roughnessFactor":1.0}},{"name":"_mat_eye_R","pbrMetallicRoughness":{"baseColorTexture":{"index":9},"metallicFactor":0.0,"roughnessFactor":1.0}},{"name":"_mat_mouse","pbrMetallicRoughness":{"baseColorTexture":{"index":10},"metallicFactor":0.0,"roughnessFactor":1.0}}],"meshes":[{"name":"Mesh_0","primitives":[{"attributes":{"POSITION":0,"NORMAL":1,"TEXCOORD_0":2,"TEXCOORD_1":3,"TANGENT":4,"JOINTS_0":5,"WEIGHTS_0":6},"indices":7,"material":0},{"attributes":{"POSITION":8,"NORMAL":9,"TEXCOORD_0":10,"TEXCOORD_1":11,"TANGENT":12,"JOINTS_0":13,"WEIGHTS_0":14},"indices":15,"material":1},{"attributes":{"POSITION":16,"NORMAL":17,"TEXCOORD_0":18,"TEXCOORD_1":19,"TANGENT":20,"JOINTS_0":21,"WEIGHTS_0":22},"indices":23,"material":2},{"attributes":{"POSITION":24,"NORMAL":25,"TEXCOORD_0":26,"TEXCOORD_1":27,"TANGENT":28,"JOINTS_0":29,"WEIGHTS_0":30},"indices":31,"material":3},{"attributes":{"POSITION":32,"NORMAL":33,"TEXCOORD_0":34,"TEXCOORD_1":35,"TANGENT":36,"JOINTS_0":37,"WEIGHTS_0":38},"indices":39,"material":4},{"attributes":{"POSITION":40,"NORMAL":41,"TEXCOORD_0":42,"TEXCOORD_1":43,"TANGENT":44,"JOINTS_0":45,"WEIGHTS_0":46},"indices":47,"material":5},{"attributes":{"POSITION":48,"NORMAL":49,"TEXCOORD_0":50,"TEXCOORD_1":51,"TANGENT":52,"JOINTS_0":53,"WEIGHTS_0":54},"indices":31,"material":6},{"attributes":{"POSITION":55,"NORMAL":56,"TEXCOORD_0":57,"TEXCOORD_1":58,"TANGENT":59,"JOINTS_0":60,"WEIGHTS_0":61},"indices":62,"material":7},{"attributes":{"POSITION":63,"NORMAL":64,"TEXCOORD_0":65,"TEXCOORD_1":66,"TANGENT":67,"JOINTS_0":68,"WEIGHTS_0":69},"indices":70,"material":8},{"attributes":{"POSITION":71,"NORMAL":72,"TEXCOORD_0":73,"TEXCOORD_1":74,"TANGENT":75,"JOINTS_0":76,"WEIGHTS_0":77},"indices":78,"material":9},{"attributes":{"POSITION":79,"NORMAL":80,"TEXCOORD_0":81,"TEXCOORD_1":82,"TANGENT":83,"JOINTS_0":84,"WEIGHTS_0":85},"indices":31,"material":10}]}],"textures":[{"sampler":0,"source":0},{"sampler":0,"source":0},{"sampler":0,"source":0},{"sampler":0,"source":0},{"sampler":0,"source":0},{"sampler":0,"source":0},{"sampler":0,"source":0},{"sampler":0,"source":1},{"sampler":0,"source":0},{"sampler":0,"source":1},{"sampler":0,"source":2}],"images":[{"mimeType":"image/png","name":"ma_mdl1_0.png","uri":"../mario/bmd/ma_mdl1/ma_mdl1_0.png"},{"mimeType":"image/png","name":"ma_mdl1_1.png","uri":"../mario/bmd/ma_mdl1/ma_mdl1_1.png"},{"mimeType":"image/png","name":"ma_mdl1_2.png","uri":"../mario/bmd/ma_mdl1/ma_mdl1_2.png"}],"skins":[{"inverseBindMatrices":86,"joints":[28,27,10,4,3,2,1,0,9,8,7,6,5,26,25,15,14,13,12,11,21,16,20,19,18,17,24,22,23],"name":"Armature"}],"accessors":[{"bufferView":0,"componentType":5126,"count":777,"type":"VEC3","min":[-49.82720947265625,16.75641632080078,-45.50847625732422],"max":[49.828487396240234,103.27922058105469,17.392654418945312]},{"bufferView":1,"componentType":5126,"count":777,"type":"VEC3"},{"bufferView":2,"componentType":5126,"count":777,"type":"VEC2"},{"bufferView":3,"componentType":5126,"count":777,"type":"VEC2"},{"bufferView":4,"componentType":5126,"count":777,"type":"VEC4"},{"bufferView":5,"componentType":5121,"count":777,"type":"VEC4"},{"bufferView":6,"componentType":5126,"count":777,"type":"VEC4"},{"bufferView":7,"componentType":5123,"count":3795,"type":"SCALAR"},{"bufferView":8,"componentType":5126,"count":119,"type":"VEC3","min":[-30.394742965698242,6.076302528381348,-2.9228193759918213],"max":[-0.6696739196777344,51.170936584472656,30.9361572265625]},{"bufferView":9,"componentType":5126,"count":119,"type":"VEC3"},{"bufferView":10,"componentType":5126,"count":119,"type":"VEC2"},{"bufferView":11,"componentType":5126,"count":119,"type":"VEC2"},{"bufferView":12,"componentType":5126,"count":119,"type":"VEC4"},{"bufferView":13,"componentType":5121,"count":119,"type":"VEC4"},{"bufferView":14,"componentType":5126,"count":119,"type":"VEC4"},{"bufferView":15,"componentType":5123,"count":516,"type":"SCALAR"},{"bufferView":16,"componentType":5126,"count":119,"type":"VEC3","min":[0.669618546962738,6.079308032989502,-2.920830249786377],"max":[30.394672393798828,51.173946380615234,30.939191818237305]},{"bufferView":17,"componentType":5126,"count":119,"type":"VEC3"},{"bufferView":18,"componentType":5126,"count":119,"type":"VEC2"},{"bufferView":19,"componentType":5126,"count":119,"type":"VEC2"},{"bufferView":20,"componentType":5126,"count":119,"type":"VEC4"},{"bufferView":21,"componentType":5121,"count":119,"type":"VEC4"},{"bufferView":22,"componentType":5126,"count":119,"type":"VEC4"},{"bufferView":23,"componentType":5123,"count":516,"type":"SCALAR"},{"bufferView":24,"componentType":5126,"count":3,"type":"VEC3","min":[-1.730707049369812,77.6798095703125,-3.5040457248687744],"max":[1.6522735357284546,83.46443939208984,1.3047513961791992]},{"bufferView":25,"componentType":5126,"count":3,"type":"VEC3"},{"bufferView":26,"componentType":5126,"count":3,"type":"VEC2"},{"bufferView":27,"componentType":5126,"count":3,"type":"VEC2"},{"bufferView":28,"componentType":5126,"count":3,"type":"VEC4"},{"bufferView":29,"componentType":5121,"count":3,"type":"VEC4"},{"bufferView":30,"componentType":5126,"count":3,"type":"VEC4"},{"bufferView":31,"componentType":5123,"count":3,"type":"SCALAR"},{"bufferView":32,"componentType":5126,"count":158,"type":"VEC3","min":[-76.3746566772461,72.44308471679688,-10.486454963684082],"max":[-42.82710647583008,90.96212768554688,19.190410614013672]},{"bufferView":33,"componentType":5126,"count":158,"type":"VEC3"},{"bufferView":34,"componentType":5126,"count":158,"type":"VEC2"},{"bufferView":35,"componentType":5126,"count":158,"type":"VEC2"},{"bufferView":36,"componentType":5126,"count":158,"type":"VEC4"},{"bufferView":37,"componentType":5121,"count":158,"type":"VEC4"},{"bufferView":38,"componentType":5126,"count":158,"type":"VEC4"},{"bufferView":39,"componentType":5123,"count":672,"type":"SCALAR"},{"bufferView":40,"componentType":5126,"count":158,"type":"VEC3","min":[42.82838821411133,72.44583892822266,-10.461868286132812],"max":[76.3753433227539,90.96479034423828,19.21784782409668]},{"bufferView":41,"componentType":5126,"count":158,"type":"VEC3"},{"bufferView":42,"componentType":5126,"count":158,"type":"VEC2"},{"bufferView":43,"componentType":5126,"count":158,"type":"VEC2"},{"bufferView":44,"componentType":5126,"count":158,"type":"VEC4"},{"bufferView":45,"componentType":5121,"count":158,"type":"VEC4"},{"bufferView":46,"componentType":5126,"count":158,"type":"VEC4"},{"bufferView":47,"componentType":5123,"count":672,"type":"SCALAR"},{"bufferView":48,"componentType":5126,"count":3,"type":"VEC3","min":[0.34263354539871216,50.89514923095703,15.038461685180664],"max":[4.786190032958984,62.29747009277344,26.921762466430664]},{"bufferView":49,"componentType":5126,"count":3,"type":"VEC3"},{"bufferView":50,"componentType":5126,"count":3,"type":"VEC2"},{"bufferView":51,"componentType":5126,"count":3,"type":"VEC2"},{"bufferView":52,"componentType":5126,"count":3,"type":"VEC4"},{"bufferView":53,"componentType":5121,"count":3,"type":"VEC4"},{"bufferView":54,"componentType":5126,"count":3,"type":"VEC4"},{"bufferView":55,"componentType":5126,"count":43,"type":"VEC3","min":[-21.715484619140625,28.965805053710938,-28.7807559967041],"max":[0.006371507421135902,42.93267822265625,5.112467288970947]},{"bufferView":56,"componentType":5126,"count":43,"type":"VEC3"},{"bufferView":57,"componentType":5126,"count":43,"type":"VEC2"},{"bufferView":58,"componentType":5126,"count":43,"type":"VEC2"},{"bufferView":59,"componentType":5126,"count":43,"type":"VEC4"},{"bufferView":60,"componentType":5121,"count":43,"type":"VEC4"},{"bufferView":61,"componentType":5126,"count":43,"type":"VEC4"},{"bufferView":62,"componentType":5123,"count":192,"type":"SCALAR"},{"bufferView":63,"componentType":5126,"count":488,"type":"VEC3","min":[-31.483665466308594,4.479097843170166,-28.7807559967041],"max":[31.478439331054688,75.39757537841797,52.48735046386719]},{"bufferView":64,"componentType":5126,"count":488,"type":"VEC3"},{"bufferView":65,"componentType":5126,"count":488,"type":"VEC2"},{"bufferView":66,"componentType":5126,"count":488,"type":"VEC2"},{"bufferView":67,"componentType":5126,"count":488,"type":"VEC4"},{"bufferView":68,"componentType":5121,"count":488,"type":"VEC4"},{"bufferView":69,"componentType":5126,"count":488,"type":"VEC4"},{"bufferView":70,"componentType":5123,"count":2394,"type":"SCALAR"},{"bufferView":71,"componentType":5126,"count":43,"type":"VEC3","min":[0.0009995346190407872,28.965805053710938,-28.7757625579834],"max":[21.72021484375,42.93267822265625,5.120161533355713]},{"bufferView":72,"componentType":5126,"count":43,"type":"VEC3"},{"bufferView":73,"componentType":5126,"count":43,"type":"VEC2"},{"bufferView":74,"componentType":5126,"count":43,"type":"VEC2"},{"bufferView":75,"componentType":5126,"count":43,"type":"VEC4"},{"bufferView":76,"componentType":5121,"count":43,"type":"VEC4"},{"bufferView":77,"componentType":5126,"count":43,"type":"VEC4"},{"bufferView":78,"componentType":5123,"count":192,"type":"SCALAR"},{"bufferView":79,"componentType":5126,"count":3,"type":"VEC3","min":[-3.5500361919403076,55.05134582519531,17.926067352294922],"max":[7.123409271240234,58.7971305847168,28.447229385375977]},{"bufferView":80,"componentType":5126,"count":3,"type":"VEC3"},{"bufferView":81,"componentType":5126,"count":3,"type":"VEC2"},{"bufferView":82,"componentType":5126,"count":3,"type":"VEC2"},{"bufferView":83,"componentType":5126,"count":3,"type":"VEC4"},{"bufferView":84,"componentType":5121,"count":3,"type":"VEC4"},{"bufferView":85,"componentType":5126,"count":3,"type":"VEC4"},{"bufferView":86,"componentType":5126,"count":29,"type":"MAT4"}],"bufferViews":[{"buffer":0,"byteOffset":0,"byteLength":9324,"target":34962},{"buffer":0,"byteOffset":9324,"byteLength":9324,"target":34962},{"buffer":0,"byteOffset":18648,"byteLength":6216,"target":34962},{"buffer":0,"byteOffset":24864,"byteLength":6216,"target":34962},{"buffer":0,"byteOffset":31080,"byteLength":12432,"target":34962},{"buffer":0,"byteOffset":43512,"byteLength":3108,"target":34962},{"buffer":0,"byteOffset":46620,"byteLength":12432,"target":34962},{"buffer":0,"byteOffset":59052,"byteLength":7590,"target":34963},{"buffer":0,"byteOffset":66644,"byteLength":1428,"target":34962},{"buffer":0,"byteOffset":68072,"byteLength":1428,"target":34962},{"buffer":0,"byteOffset":69500,"byteLength":952,"target":34962},{"buffer":0,"byteOffset":70452,"byteLength":952,"target":34962},{"buffer":0,"byteOffset":71404,"byteLength":1904,"target":34962},{"buffer":0,"byteOffset":73308,"byteLength":476,"target":34962},{"buffer":0,"byteOffset":73784,"byteLength":1904,"target":34962},{"buffer":0,"byteOffset":75688,"byteLength":1032,"target":34963},{"buffer":0,"byteOffset":76720,"byteLength":1428,"target":34962},{"buffer":0,"byteOffset":78148,"byteLength":1428,"target":34962},{"buffer":0,"byteOffset":79576,"byteLength":952,"target":34962},{"buffer":0,"byteOffset":80528,"byteLength":952,"target":34962},{"buffer":0,"byteOffset":81480,"byteLength":1904,"target":34962},{"buffer":0,"byteOffset":83384,"byteLength":476,"target":34962},{"buffer":0,"byteOffset":83860,"byteLength":1904,"target":34962},{"buffer":0,"byteOffset":85764,"byteLength":1032,"target":34963},{"buffer":0,"byteOffset":86796,"byteLength":36,"target":34962},{"buffer":0,"byteOffset":86832,"byteLength":36,"target":34962},{"buffer":0,"byteOffset":86868,"byteLength":24,"target":34962},{"buffer":0,"byteOffset":86892,"byteLength":24,"target":34962},{"buffer":0,"byteOffset":86916,"byteLength":48,"target":34962},{"buffer":0,"byteOffset":86964,"byteLength":12,"target":34962},{"buffer":0,"byteOffset":86976,"byteLength":48,"target":34962},{"buffer":0,"byteOffset":87024,"byteLength":6,"target":34963},{"buffer":0,"byteOffset":87032,"byteLength":1896,"target":34962},{"buffer":0,"byteOffset":88928,"byteLength":1896,"target":34962},{"buffer":0,"byteOffset":90824,"byteLength":1264,"target":34962},{"buffer":0,"byteOffset":92088,"byteLength":1264,"target":34962},{"buffer":0,"byteOffset":93352,"byteLength":2528,"target":34962},{"buffer":0,"byteOffset":95880,"byteLength":632,"target":34962},{"buffer":0,"byteOffset":96512,"byteLength":2528,"target":34962},{"buffer":0,"byteOffset":99040,"byteLength":1344,"target":34963},{"buffer":0,"byteOffset":100384,"byteLength":1896,"target":34962},{"buffer":0,"byteOffset":102280,"byteLength":1896,"target":34962},{"buffer":0,"byteOffset":104176,"byteLength":1264,"target":34962},{"buffer":0,"byteOffset":105440,"byteLength":1264,"target":34962},{"buffer":0,"byteOffset":106704,"byteLength":2528,"target":34962},{"buffer":0,"byteOffset":109232,"byteLength":632,"target":34962},{"buffer":0,"byteOffset":109864,"byteLength":2528,"target":34962},{"buffer":0,"byteOffset":112392,"byteLength":1344,"target":34963},{"buffer":0,"byteOffset":113736,"byteLength":36,"target":34962},{"buffer":0,"byteOffset":113772,"byteLength":36,"target":34962},{"buffer":0,"byteOffset":113808,"byteLength":24,"target":34962},{"buffer":0,"byteOffset":113832,"byteLength":24,"target":34962},{"buffer":0,"byteOffset":113856,"byteLength":48,"target":34962},{"buffer":0,"byteOffset":113904,"byteLength":12,"target":34962},{"buffer":0,"byteOffset":113916,"byteLength":48,"target":34962},{"buffer":0,"byteOffset":113964,"byteLength":516,"target":34962},{"buffer":0,"byteOffset":114480,"byteLength":516,"target":34962},{"buffer":0,"byteOffset":114996,"byteLength":344,"target":34962},{"buffer":0,"byteOffset":115340,"byteLength":344,"target":34962},{"buffer":0,"byteOffset":115684,"byteLength":688,"target":34962},{"buffer":0,"byteOffset":116372,"byteLength":172,"target":34962},{"buffer":0,"byteOffset":116544,"byteLength":688,"target":34962},{"buffer":0,"byteOffset":117232,"byteLength":384,"target":34963},{"buffer":0,"byteOffset":117616,"byteLength":5856,"target":34962},{"buffer":0,"byteOffset":123472,"byteLength":5856,"target":34962},{"buffer":0,"byteOffset":129328,"byteLength":3904,"target":34962},{"buffer":0,"byteOffset":133232,"byteLength":3904,"target":34962},{"buffer":0,"byteOffset":137136,"byteLength":7808,"target":34962},{"buffer":0,"byteOffset":144944,"byteLength":1952,"target":34962},{"buffer":0,"byteOffset":146896,"byteLength":7808,"target":34962},{"buffer":0,"byteOffset":154704,"byteLength":4788,"target":34963},{"buffer":0,"byteOffset":159492,"byteLength":516,"target":34962},{"buffer":0,"byteOffset":160008,"byteLength":516,"target":34962},{"buffer":0,"byteOffset":160524,"byteLength":344,"target":34962},{"buffer":0,"byteOffset":160868,"byteLength":344,"target":34962},{"buffer":0,"byteOffset":161212,"byteLength":688,"target":34962},{"buffer":0,"byteOffset":161900,"byteLength":172,"target":34962},{"buffer":0,"byteOffset":162072,"byteLength":688,"target":34962},{"buffer":0,"byteOffset":162760,"byteLength":384,"target":34963},{"buffer":0,"byteOffset":163144,"byteLength":36,"target":34962},{"buffer":0,"byteOffset":163180,"byteLength":36,"target":34962},{"buffer":0,"byteOffset":163216,"byteLength":24,"target":34962},{"buffer":0,"byteOffset":163240,"byteLength":24,"target":34962},{"buffer":0,"byteOffset":163264,"byteLength":48,"target":34962},{"buffer":0,"byteOffset":163312,"byteLength":12,"target":34962},{"buffer":0,"byteOffset":163324,"byteLength":48,"target":34962},{"buffer":0,"byteOffset":163372,"byteLength":1856}],"samplers":[{"magFilter":9729,"minFilter":9987,"wrapS":33071,"wrapT":33071}],"buffers":[{"uri":"Koopa.bin","byteLength":165228}]}