{
	"asset":{
		"generator":"Khronos glTF Blender I/O v4.2.69",
		"version":"2.0"
	},
	"scene":0,
	"scenes":[
		{
			"name":"Scene",
			"nodes":[
				30
			]
		}
	],
	"nodes":[
		{
			"name":"M_foot_R",
			"rotation":[
				-1.5858677215874195e-07,
				-5.820766091346741e-11,
				-4.9246809794567525e-05,
				1
			],
			"translation":[
				-0.002013709396123886,
				4.380941390991211e-06,
				6.813555955886841e-06
			]
		},
		{
			"children":[
				0
			],
			"name":"jnt_foot_R",
			"rotation":[
				1.2776581570506096e-07,
				2.3283064365386963e-10,
				1,
				3.765308065339923e-09
			],
			"scale":[
				1,
				0.9999999403953552,
				1
			],
			"translation":[
				-1.7136335372924805e-07,
				1.2814998626708984e-06,
				1.1548399925231934e-06
			]
		},
		{
			"children":[
				1
			],
			"name":"chn_foot_R",
			"rotation":[
				0.0020112216006964445,
				-0.0007247322937473655,
				-0.002874918282032013,
				0.9999935626983643
			],
			"scale":[
				1,
				1,
				0.9999998807907104
			],
			"translation":[
				20.284143447875977,
				2.4828150272369385,
				-0.04971567541360855
			]
		},
		{
			"children":[
				2
			],
			"name":"jnt_leg_R2",
			"rotation":[
				5.3880398809269536e-08,
				-1.0221282309430535e-06,
				0.05390222743153572,
				0.9985461831092834
			],
			"translation":[
				20.804290771484375,
				-4.750490188598633e-05,
				3.8880854845047e-05
			]
		},
		{
			"children":[
				3
			],
			"name":"jnt_leg_R1",
			"rotation":[
				4.528150299165645e-08,
				1.8338143226159787e-09,
				-0.017254779115319252,
				0.9998511075973511
			],
			"scale":[
				1,
				0.9999998807907104,
				1
			],
			"translation":[
				8.017110824584961,
				2.2388229370117188,
				-11.280077934265137
			]
		},
		{
			"name":"M_foot_L",
			"rotation":[
				-1.3660610420629382e-07,
				1.1641532182693481e-10,
				-4.9230122385779396e-05,
				1
			],
			"translation":[
				-0.0019548237323760986,
				-2.980232238769531e-07,
				5.46872615814209e-06
			]
		},
		{
			"children":[
				5
			],
			"name":"jnt_foot_L",
			"rotation":[
				-1.0069925338029861e-07,
				-8.585629984736443e-10,
				-1,
				2.9103830456733704e-10
			],
			"translation":[
				9.909272193908691e-07,
				0,
				-3.46451997756958e-07
			]
		},
		{
			"children":[
				6
			],
			"name":"chn_foot_L",
			"rotation":[
				0.0026916698552668095,
				-0.005700760055333376,
				0.0013094459427520633,
				0.9999792575836182
			],
			"scale":[
				1,
				0.9999999403953552,
				0.9999998807907104
			],
			"translation":[
				19.795581817626953,
				1.4828107357025146,
				0.13926617801189423
			]
		},
		{
			"children":[
				7
			],
			"name":"jnt_leg_L2",
			"rotation":[
				6.54769536367894e-08,
				-1.0081089385494124e-06,
				0.05390216037631035,
				0.9985462427139282
			],
			"scale":[
				0.9999999403953552,
				0.9999999403953552,
				0.9999999403953552
			],
			"translation":[
				20.804296493530273,
				-4.774332046508789e-05,
				4.2397528886795044e-05
			]
		},
		{
			"children":[
				8
			],
			"name":"jnt_leg_L1",
			"rotation":[
				2.2850251468753413e-08,
				2.264524123773981e-09,
				-0.017254753038287163,
				0.9998511075973511
			],
			"scale":[
				1,
				0.9999999403953552,
				1
			],
			"translation":[
				8.017088890075684,
				2.2388134002685547,
				11.280113220214844
			]
		},
		{
			"children":[
				4,
				9
			],
			"name":"jnt_waist",
			"rotation":[
				-0.5000000596046448,
				0.49995142221450806,
				-0.5000004768371582,
				0.5000481009483337
			],
			"translation":[
				1.3593307812698185e-08,
				-1.6723993212508503e-06,
				-3.899913281202316e-09
			]
		},
		{
			"name":"M_hand1_R",
			"rotation":[
				-2.6830093702301383e-11,
				4.746425474877469e-11,
				-1.4889980803900471e-08,
				1
			],
			"translation":[
				5.1371753215789795e-06,
				7.962808012962341e-07,
				1.6932026483118534e-05
			]
		},
		{
			"children":[
				11
			],
			"name":"jnt_hand_R",
			"rotation":[
				9.26345023799513e-07,
				-1.1532753205756308e-06,
				0.11860350519418716,
				0.9929417371749878
			],
			"scale":[
				1,
				0.9999999403953552,
				1
			],
			"translation":[
				11.997598648071289,
				0.005382774397730827,
				1.0416930308565497e-05
			]
		},
		{
			"children":[
				12
			],
			"name":"jnt_arm_R2",
			"rotation":[
				-5.811814480694011e-05,
				-3.624742748797871e-05,
				-0.20561018586158752,
				0.9786339998245239
			],
			"scale":[
				0.9999999403953552,
				0.9999998807907104,
				1
			],
			"translation":[
				13.656599044799805,
				2.8479844331741333e-06,
				-2.0023850083816797e-05
			]
		},
		{
			"children":[
				13
			],
			"name":"jnt_arm_R1",
			"rotation":[
				0.7005773186683655,
				0.09562252461910248,
				0.2048770636320114,
				0.6768110394477844
			],
			"scale":[
				0.9999999403953552,
				1,
				0.9999999403953552
			],
			"translation":[
				17.77998924255371,
				-0.42379656434059143,
				3.3961498737335205
			]
		},
		{
			"children":[
				14
			],
			"name":"jnt_sldr_R",
			"rotation":[
				0.3819306492805481,
				0.5950874090194702,
				-0.5950869917869568,
				0.38193124532699585
			],
			"scale":[
				0.9999998807907104,
				0.9999998211860657,
				0.9999999403953552
			],
			"translation":[
				29.896692276000977,
				-5.722395144402981e-06,
				0.048463623970746994
			]
		},
		{
			"name":"eff_sldr_L",
			"rotation":[
				2.4128894438035786e-08,
				-1.0379699233453721e-07,
				-4.476896720007062e-08,
				1
			],
			"translation":[
				17.700593948364258,
				-2.2499494662042707e-05,
				-1.2470874935388565e-05
			]
		},
		{
			"name":"M_hand1_L",
			"rotation":[
				2.7057467377744615e-11,
				3.7900349525443744e-11,
				2.443477953306683e-08,
				1
			],
			"translation":[
				3.7513673305511475e-06,
				1.0890653356909752e-06,
				3.264827682869509e-06
			]
		},
		{
			"children":[
				17
			],
			"name":"jnt_hand_L",
			"rotation":[
				2.537741238484159e-06,
				-2.4893168415474065e-08,
				0.11860368400812149,
				0.992941677570343
			],
			"scale":[
				0.9999999403953552,
				1.0000001192092896,
				1
			],
			"translation":[
				11.997599601745605,
				0.005390770733356476,
				5.762449291069061e-07
			]
		},
		{
			"children":[
				18
			],
			"name":"jnt_arm_L2",
			"rotation":[
				-8.901185992726823e-07,
				8.117618790492998e-07,
				-0.20546945929527283,
				0.9786635637283325
			],
			"scale":[
				0.9999999403953552,
				0.9999999403953552,
				0.9999999403953552
			],
			"translation":[
				13.656604766845703,
				1.4808028936386108e-07,
				-3.246546839363873e-06
			]
		},
		{
			"children":[
				19
			],
			"name":"jnt_arm_L1",
			"rotation":[
				-0.7005773782730103,
				-0.09562265127897263,
				0.2048770934343338,
				0.6768109798431396
			],
			"scale":[
				1,
				0.9999999403953552,
				0.9999998807907104
			],
			"translation":[
				17.779991149902344,
				-0.42378517985343933,
				-3.39614200592041
			]
		},
		{
			"children":[
				16,
				20
			],
			"name":"jnt_sldr_L",
			"rotation":[
				-0.38192975521087646,
				-0.595088005065918,
				-0.5950875282287598,
				0.3819303810596466
			],
			"scale":[
				0.9999998807907104,
				1.0000001192092896,
				1
			],
			"translation":[
				29.896699905395508,
				-3.815715899690986e-06,
				-0.0483572781085968
			]
		},
		{
			"name":"M_head_cap1",
			"rotation":[
				1.573994268255774e-10,
				3.028617356903851e-10,
				-8.203642209991813e-10,
				1
			],
			"translation":[
				2.7568603400141e-08,
				-1.2936230632476509e-05,
				7.12461769580841e-08
			]
		},
		{
			"name":"M_head",
			"rotation":[
				1.573994268255774e-10,
				3.028617356903851e-10,
				-8.203642209991813e-10,
				1
			],
			"translation":[
				2.7568603400141e-08,
				-1.2936230632476509e-05,
				7.12461769580841e-08
			]
		},
		{
			"children":[
				22,
				23
			],
			"name":"jnt_head",
			"rotation":[
				0.001388146192766726,
				0.0015256680781021714,
				0.7075451016426086,
				0.7066652178764343
			],
			"scale":[
				1,
				0.9999999403953552,
				1
			],
			"translation":[
				40.703948974609375,
				-1.3830089569091797,
				-0.0021776906214654446
			]
		},
		{
			"children":[
				15,
				21,
				24
			],
			"name":"jnt_chest",
			"rotation":[
				-6.9993592433093e-07,
				6.091112823014555e-07,
				0.7070724368095398,
				0.707141101360321
			],
			"translation":[
				-1.950866135302931e-10,
				2.4533608211640967e-06,
				-2.0474999473663047e-09
			]
		},
		{
			"children":[
				25
			],
			"name":"chn_chest",
			"rotation":[
				0.0023717719595879316,
				-0.6966560482978821,
				0.0028481425251811743,
				0.7173957228660583
			],
			"scale":[
				0.9999998807907104,
				1,
				0.9999999403953552
			],
			"translation":[
				0.011690358631312847,
				3.311817272333428e-05,
				0.0008828061982057989
			]
		},
		{
			"children":[
				10,
				26
			],
			"name":"center",
			"rotation":[
				-0.0032559027895331383,
				0.9999108910560608,
				-0.0003424861642997712,
				0.012943867594003677
			],
			"scale":[
				0.9999999403953552,
				0.9999998807907104,
				1
			],
			"translation":[
				0.010100509971380234,
				56.43752670288086,
				0.0011005403939634562
			]
		},
		{
			"children":[
				27
			],
			"name":"mdl1",
			"rotation":[
				-8.557136332854043e-09,
				1.7114272665708086e-08,
				-2.928983286277023e-16,
				1
			]
		},
		{
			"mesh":0,
			"name":"Mesh_0",
			"skin":0
		},
		{
			"children":[
				29,
				28
			],
			"name":"Armature"
		}
	],
	"materials":[
		{
			"doubleSided":true,
			"name":"_mat_head(2)",
			"pbrMetallicRoughness":{
				"baseColorTexture":{
					"index":0
				},
				"metallicFactor":0
			}
		},
		{
			"name":"m2_mat_head_",
			"pbrMetallicRoughness":{
				"baseColorTexture":{
					"index":1
				},
				"metallicFactor":0
			}
		},
		{
			"name":"_mat_head(3)",
			"pbrMetallicRoughness":{
				"baseColorTexture":{
					"index":2
				},
				"metallicFactor":0
			}
		},
		{
			"name":"_mat_head(4)",
			"pbrMetallicRoughness":{
				"baseColorTexture":{
					"index":3
				},
				"metallicFactor":0
			}
		},
		{
			"name":"_mat_head(5)",
			"pbrMetallicRoughness":{
				"baseColorTexture":{
					"index":4
				},
				"metallicFactor":0
			}
		},
		{
			"name":"_mat_head(6)",
			"pbrMetallicRoughness":{
				"baseColorTexture":{
					"index":5
				},
				"metallicFactor":0
			}
		},
		{
			"name":"_mat_head(7)",
			"pbrMetallicRoughness":{
				"baseColorTexture":{
					"index":6
				},
				"metallicFactor":0
			}
		},
		{
			"name":"_mat_head(8)",
			"pbrMetallicRoughness":{
				"baseColorTexture":{
					"index":7
				},
				"metallicFactor":0
			}
		},
		{
			"alphaMode":"MASK",
			"name":"_mat_eye_L",
			"pbrMetallicRoughness":{
				"baseColorTexture":{
					"index":8
				},
				"metallicFactor":0
			}
		},
		{
			"name":"_mat_mouse",
			"pbrMetallicRoughness":{
				"baseColorTexture":{
					"index":9
				},
				"metallicFactor":0
			}
		},
		{
			"alphaMode":"MASK",
			"name":"_mat_eye_R",
			"pbrMetallicRoughness":{
				"baseColorTexture":{
					"index":10
				},
				"metallicFactor":0
			}
		}
	],
	"meshes":[
		{
			"name":"Mesh_0",
			"primitives":[
				{
					"attributes":{
						"POSITION":0,
						"NORMAL":1,
						"TEXCOORD_0":2,
						"TEXCOORD_1":3,
						"JOINTS_0":4,
						"WEIGHTS_0":5
					},
					"indices":6,
					"material":0
				},
				{
					"attributes":{
						"POSITION":7,
						"NORMAL":8,
						"TEXCOORD_0":9,
						"TEXCOORD_1":10,
						"JOINTS_0":11,
						"WEIGHTS_0":12
					},
					"indices":13,
					"material":1
				},
				{
					"attributes":{
						"POSITION":14,
						"NORMAL":15,
						"TEXCOORD_0":16,
						"TEXCOORD_1":17,
						"JOINTS_0":18,
						"WEIGHTS_0":19
					},
					"indices":20,
					"material":2
				},
				{
					"attributes":{
						"POSITION":21,
						"NORMAL":22,
						"TEXCOORD_0":23,
						"TEXCOORD_1":24,
						"JOINTS_0":25,
						"WEIGHTS_0":26
					},
					"indices":27,
					"material":3
				},
				{
					"attributes":{
						"POSITION":28,
						"NORMAL":29,
						"TEXCOORD_0":30,
						"TEXCOORD_1":31,
						"JOINTS_0":32,
						"WEIGHTS_0":33
					},
					"indices":34,
					"material":4
				},
				{
					"attributes":{
						"POSITION":35,
						"NORMAL":36,
						"TEXCOORD_0":37,
						"TEXCOORD_1":38,
						"JOINTS_0":39,
						"WEIGHTS_0":40
					},
					"indices":41,
					"material":5
				},
				{
					"attributes":{
						"POSITION":42,
						"NORMAL":43,
						"TEXCOORD_0":44,
						"TEXCOORD_1":45,
						"JOINTS_0":46,
						"WEIGHTS_0":47
					},
					"indices":48,
					"material":6
				},
				{
					"attributes":{
						"POSITION":49,
						"NORMAL":50,
						"TEXCOORD_0":51,
						"TEXCOORD_1":52,
						"JOINTS_0":53,
						"WEIGHTS_0":54
					},
					"indices":55,
					"material":7
				},
				{
					"attributes":{
						"POSITION":56,
						"NORMAL":57,
						"TEXCOORD_0":58,
						"TEXCOORD_1":59,
						"JOINTS_0":60,
						"WEIGHTS_0":61
					},
					"indices":62,
					"material":8
				},
				{
					"attributes":{
						"POSITION":63,
						"NORMAL":64,
						"TEXCOORD_0":65,
						"TEXCOORD_1":66,
						"JOINTS_0":67,
						"WEIGHTS_0":68
					},
					"indices":48,
					"material":9
				},
				{
					"attributes":{
						"POSITION":69,
						"NORMAL":70,
						"TEXCOORD_0":71,
						"TEXCOORD_1":72,
						"JOINTS_0":73,
						"WEIGHTS_0":74
					},
					"indices":75,
					"material":10
				}
			]
		}
	],
	"textures":[
		{
			"sampler":0,
			"source":0
		},
		{
			"sampler":0,
			"source":0
		},
		{
			"sampler":0,
			"source":0
		},
		{
			"sampler":0,
			"source":0
		},
		{
			"sampler":0,
			"source":0
		},
		{
			"sampler":0,
			"source":0
		},
		{
			"sampler":0,
			"source":0
		},
		{
			"sampler":0,
			"source":0
		},
		{
			"sampler":0,
			"source":1
		},
		{
			"sampler":0,
			"source":2
		},
		{
			"sampler":0,
			"source":1
		}
	],
	"images":[
		{
			"mimeType":"image/png",
			"name":"Waluigi_0",
			"uri":"Waluigi_0.png"
		},
		{
			"mimeType":"image/png",
			"name":"Waluigi_1",
			"uri":"Waluigi_1.png"
		},
		{
			"mimeType":"image/png",
			"name":"Waluigi_2",
			"uri":"Waluigi_2.png"
		}
	],
	"skins":[
		{
			"inverseBindMatrices":76,
			"joints":[
				28,
				27,
				10,
				4,
				3,
				2,
				1,
				0,
				9,
				8,
				7,
				6,
				5,
				26,
				25,
				15,
				14,
				13,
				12,
				11,
				21,
				16,
				20,
				19,
				18,
				17,
				24,
				22,
				23
			],
			"name":"Armature"
		}
	],
	"accessors":[
		{
			"bufferView":0,
			"componentType":5126,
			"count":248,
			"max":[
				22.876792907714844,
				91.24227142333984,
				19.791662216186523
			],
			"min":[
				-22.904176712036133,
				35.70412826538086,
				-13.6111421585083
			],
			"type":"VEC3"
		},
		{
			"bufferView":1,
			"componentType":5126,
			"count":248,
			"type":"VEC3"
		},
		{
			"bufferView":2,
			"componentType":5126,
			"count":248,
			"type":"VEC2"
		},
		{
			"bufferView":3,
			"componentType":5126,
			"count":248,
			"type":"VEC2"
		},
		{
			"bufferView":4,
			"componentType":5121,
			"count":248,
			"type":"VEC4"
		},
		{
			"bufferView":5,
			"componentType":5126,
			"count":248,
			"type":"VEC4"
		},
		{
			"bufferView":6,
			"componentType":5123,
			"count":528,
			"type":"SCALAR"
		},
		{
			"bufferView":7,
			"componentType":5126,
			"count":251,
			"max":[
				44.19116973876953,
				87.04476928710938,
				16.17708969116211
			],
			"min":[
				-44.15808868408203,
				-4.9352569580078125,
				-13.022053718566895
			],
			"type":"VEC3"
		},
		{
			"bufferView":8,
			"componentType":5126,
			"count":251,
			"type":"VEC3"
		},
		{
			"bufferView":9,
			"componentType":5126,
			"count":251,
			"type":"VEC2"
		},
		{
			"bufferView":10,
			"componentType":5126,
			"count":251,
			"type":"VEC2"
		},
		{
			"bufferView":11,
			"componentType":5121,
			"count":251,
			"type":"VEC4"
		},
		{
			"bufferView":12,
			"componentType":5126,
			"count":251,
			"type":"VEC4"
		},
		{
			"bufferView":13,
			"componentType":5123,
			"count":1026,
			"type":"SCALAR"
		},
		{
			"bufferView":14,
			"componentType":5126,
			"count":55,
			"max":[
				17.75699806213379,
				40.76881790161133,
				12.64330768585205
			],
			"min":[
				1.970113754272461,
				-4.341217517852783,
				-7.350514888763428
			],
			"type":"VEC3"
		},
		{
			"bufferView":15,
			"componentType":5126,
			"count":55,
			"type":"VEC3"
		},
		{
			"bufferView":16,
			"componentType":5126,
			"count":55,
			"type":"VEC2"
		},
		{
			"bufferView":17,
			"componentType":5126,
			"count":55,
			"type":"VEC2"
		},
		{
			"bufferView":18,
			"componentType":5121,
			"count":55,
			"type":"VEC4"
		},
		{
			"bufferView":19,
			"componentType":5126,
			"count":55,
			"type":"VEC4"
		},
		{
			"bufferView":20,
			"componentType":5123,
			"count":210,
			"type":"SCALAR"
		},
		{
			"bufferView":21,
			"componentType":5126,
			"count":58,
			"max":[
				-0.9909409880638123,
				41.02499771118164,
				11.243779182434082
			],
			"min":[
				-16.77684211730957,
				-4.113025665283203,
				-8.984755516052246
			],
			"type":"VEC3"
		},
		{
			"bufferView":22,
			"componentType":5126,
			"count":58,
			"type":"VEC3"
		},
		{
			"bufferView":23,
			"componentType":5126,
			"count":58,
			"type":"VEC2"
		},
		{
			"bufferView":24,
			"componentType":5126,
			"count":58,
			"type":"VEC2"
		},
		{
			"bufferView":25,
			"componentType":5121,
			"count":58,
			"type":"VEC4"
		},
		{
			"bufferView":26,
			"componentType":5126,
			"count":58,
			"type":"VEC4"
		},
		{
			"bufferView":27,
			"componentType":5123,
			"count":210,
			"type":"SCALAR"
		},
		{
			"bufferView":28,
			"componentType":5126,
			"count":132,
			"max":[
				-42.06548309326172,
				87.20809936523438,
				11.597179412841797
			],
			"min":[
				-72.66600799560547,
				70.88752746582031,
				-11.656417846679688
			],
			"type":"VEC3"
		},
		{
			"bufferView":29,
			"componentType":5126,
			"count":132,
			"type":"VEC3"
		},
		{
			"bufferView":30,
			"componentType":5126,
			"count":132,
			"type":"VEC2"
		},
		{
			"bufferView":31,
			"componentType":5126,
			"count":132,
			"type":"VEC2"
		},
		{
			"bufferView":32,
			"componentType":5121,
			"count":132,
			"type":"VEC4"
		},
		{
			"bufferView":33,
			"componentType":5126,
			"count":132,
			"type":"VEC4"
		},
		{
			"bufferView":34,
			"componentType":5123,
			"count":507,
			"type":"SCALAR"
		},
		{
			"bufferView":35,
			"componentType":5126,
			"count":132,
			"max":[
				72.33362579345703,
				86.83190155029297,
				11.608634948730469
			],
			"min":[
				43.19219970703125,
				71.30835723876953,
				-10.541624069213867
			],
			"type":"VEC3"
		},
		{
			"bufferView":36,
			"componentType":5126,
			"count":132,
			"type":"VEC3"
		},
		{
			"bufferView":37,
			"componentType":5126,
			"count":132,
			"type":"VEC2"
		},
		{
			"bufferView":38,
			"componentType":5126,
			"count":132,
			"type":"VEC2"
		},
		{
			"bufferView":39,
			"componentType":5121,
			"count":132,
			"type":"VEC4"
		},
		{
			"bufferView":40,
			"componentType":5126,
			"count":132,
			"type":"VEC4"
		},
		{
			"bufferView":41,
			"componentType":5123,
			"count":507,
			"type":"SCALAR"
		},
		{
			"bufferView":42,
			"componentType":5126,
			"count":3,
			"max":[
				-4.505808353424072,
				102.7314224243164,
				12.61412525177002
			],
			"min":[
				-4.821776390075684,
				102.4538803100586,
				12.370107650756836
			],
			"type":"VEC3"
		},
		{
			"bufferView":43,
			"componentType":5126,
			"count":3,
			"type":"VEC3"
		},
		{
			"bufferView":44,
			"componentType":5126,
			"count":3,
			"type":"VEC2"
		},
		{
			"bufferView":45,
			"componentType":5126,
			"count":3,
			"type":"VEC2"
		},
		{
			"bufferView":46,
			"componentType":5121,
			"count":3,
			"type":"VEC4"
		},
		{
			"bufferView":47,
			"componentType":5126,
			"count":3,
			"type":"VEC4"
		},
		{
			"bufferView":48,
			"componentType":5123,
			"count":3,
			"type":"SCALAR"
		},
		{
			"bufferView":49,
			"componentType":5126,
			"count":413,
			"max":[
				27.241718292236328,
				119.20242309570312,
				36.84708023071289
			],
			"min":[
				-27.364418029785156,
				74.49762725830078,
				-10.593405723571777
			],
			"type":"VEC3"
		},
		{
			"bufferView":50,
			"componentType":5126,
			"count":413,
			"type":"VEC3"
		},
		{
			"bufferView":51,
			"componentType":5126,
			"count":413,
			"type":"VEC2"
		},
		{
			"bufferView":52,
			"componentType":5126,
			"count":413,
			"type":"VEC2"
		},
		{
			"bufferView":53,
			"componentType":5121,
			"count":413,
			"type":"VEC4"
		},
		{
			"bufferView":54,
			"componentType":5126,
			"count":413,
			"type":"VEC4"
		},
		{
			"bufferView":55,
			"componentType":5123,
			"count":1308,
			"type":"SCALAR"
		},
		{
			"bufferView":56,
			"componentType":5126,
			"count":13,
			"max":[
				14.516356468200684,
				114.27464294433594,
				26.47064781188965
			],
			"min":[
				0.10880240797996521,
				99.77227783203125,
				11.050212860107422
			],
			"type":"VEC3"
		},
		{
			"bufferView":57,
			"componentType":5126,
			"count":13,
			"type":"VEC3"
		},
		{
			"bufferView":58,
			"componentType":5126,
			"count":13,
			"type":"VEC2"
		},
		{
			"bufferView":59,
			"componentType":5126,
			"count":13,
			"type":"VEC2"
		},
		{
			"bufferView":60,
			"componentType":5121,
			"count":13,
			"type":"VEC4"
		},
		{
			"bufferView":61,
			"componentType":5126,
			"count":13,
			"type":"VEC4"
		},
		{
			"bufferView":62,
			"componentType":5123,
			"count":45,
			"type":"SCALAR"
		},
		{
			"bufferView":63,
			"componentType":5126,
			"count":3,
			"max":[
				-2.9717414379119873,
				111.24465942382812,
				4.699649810791016
			],
			"min":[
				-11.278891563415527,
				106.04988098144531,
				-0.34276553988456726
			],
			"type":"VEC3"
		},
		{
			"bufferView":64,
			"componentType":5126,
			"count":3,
			"type":"VEC3"
		},
		{
			"bufferView":65,
			"componentType":5126,
			"count":3,
			"type":"VEC2"
		},
		{
			"bufferView":66,
			"componentType":5126,
			"count":3,
			"type":"VEC2"
		},
		{
			"bufferView":67,
			"componentType":5121,
			"count":3,
			"type":"VEC4"
		},
		{
			"bufferView":68,
			"componentType":5126,
			"count":3,
			"type":"VEC4"
		},
		{
			"bufferView":69,
			"componentType":5126,
			"count":13,
			"max":[
				0.10899315774440765,
				114.182373046875,
				26.530649185180664
			],
			"min":[
				-14.431543350219727,
				99.77351379394531,
				11.144643783569336
			],
			"type":"VEC3"
		},
		{
			"bufferView":70,
			"componentType":5126,
			"count":13,
			"type":"VEC3"
		},
		{
			"bufferView":71,
			"componentType":5126,
			"count":13,
			"type":"VEC2"
		},
		{
			"bufferView":72,
			"componentType":5126,
			"count":13,
			"type":"VEC2"
		},
		{
			"bufferView":73,
			"componentType":5121,
			"count":13,
			"type":"VEC4"
		},
		{
			"bufferView":74,
			"componentType":5126,
			"count":13,
			"type":"VEC4"
		},
		{
			"bufferView":75,
			"componentType":5123,
			"count":45,
			"type":"SCALAR"
		},
		{
			"bufferView":76,
			"componentType":5126,
			"count":29,
			"type":"MAT4"
		}
	],
	"bufferViews":[
		{
			"buffer":0,
			"byteLength":2976,
			"byteOffset":0,
			"target":34962
		},
		{
			"buffer":0,
			"byteLength":2976,
			"byteOffset":2976,
			"target":34962
		},
		{
			"buffer":0,
			"byteLength":1984,
			"byteOffset":5952,
			"target":34962
		},
		{
			"buffer":0,
			"byteLength":1984,
			"byteOffset":7936,
			"target":34962
		},
		{
			"buffer":0,
			"byteLength":992,
			"byteOffset":9920,
			"target":34962
		},
		{
			"buffer":0,
			"byteLength":3968,
			"byteOffset":10912,
			"target":34962
		},
		{
			"buffer":0,
			"byteLength":1056,
			"byteOffset":14880,
			"target":34963
		},
		{
			"buffer":0,
			"byteLength":3012,
			"byteOffset":15936,
			"target":34962
		},
		{
			"buffer":0,
			"byteLength":3012,
			"byteOffset":18948,
			"target":34962
		},
		{
			"buffer":0,
			"byteLength":2008,
			"byteOffset":21960,
			"target":34962
		},
		{
			"buffer":0,
			"byteLength":2008,
			"byteOffset":23968,
			"target":34962
		},
		{
			"buffer":0,
			"byteLength":1004,
			"byteOffset":25976,
			"target":34962
		},
		{
			"buffer":0,
			"byteLength":4016,
			"byteOffset":26980,
			"target":34962
		},
		{
			"buffer":0,
			"byteLength":2052,
			"byteOffset":30996,
			"target":34963
		},
		{
			"buffer":0,
			"byteLength":660,
			"byteOffset":33048,
			"target":34962
		},
		{
			"buffer":0,
			"byteLength":660,
			"byteOffset":33708,
			"target":34962
		},
		{
			"buffer":0,
			"byteLength":440,
			"byteOffset":34368,
			"target":34962
		},
		{
			"buffer":0,
			"byteLength":440,
			"byteOffset":34808,
			"target":34962
		},
		{
			"buffer":0,
			"byteLength":220,
			"byteOffset":35248,
			"target":34962
		},
		{
			"buffer":0,
			"byteLength":880,
			"byteOffset":35468,
			"target":34962
		},
		{
			"buffer":0,
			"byteLength":420,
			"byteOffset":36348,
			"target":34963
		},
		{
			"buffer":0,
			"byteLength":696,
			"byteOffset":36768,
			"target":34962
		},
		{
			"buffer":0,
			"byteLength":696,
			"byteOffset":37464,
			"target":34962
		},
		{
			"buffer":0,
			"byteLength":464,
			"byteOffset":38160,
			"target":34962
		},
		{
			"buffer":0,
			"byteLength":464,
			"byteOffset":38624,
			"target":34962
		},
		{
			"buffer":0,
			"byteLength":232,
			"byteOffset":39088,
			"target":34962
		},
		{
			"buffer":0,
			"byteLength":928,
			"byteOffset":39320,
			"target":34962
		},
		{
			"buffer":0,
			"byteLength":420,
			"byteOffset":40248,
			"target":34963
		},
		{
			"buffer":0,
			"byteLength":1584,
			"byteOffset":40668,
			"target":34962
		},
		{
			"buffer":0,
			"byteLength":1584,
			"byteOffset":42252,
			"target":34962
		},
		{
			"buffer":0,
			"byteLength":1056,
			"byteOffset":43836,
			"target":34962
		},
		{
			"buffer":0,
			"byteLength":1056,
			"byteOffset":44892,
			"target":34962
		},
		{
			"buffer":0,
			"byteLength":528,
			"byteOffset":45948,
			"target":34962
		},
		{
			"buffer":0,
			"byteLength":2112,
			"byteOffset":46476,
			"target":34962
		},
		{
			"buffer":0,
			"byteLength":1014,
			"byteOffset":48588,
			"target":34963
		},
		{
			"buffer":0,
			"byteLength":1584,
			"byteOffset":49604,
			"target":34962
		},
		{
			"buffer":0,
			"byteLength":1584,
			"byteOffset":51188,
			"target":34962
		},
		{
			"buffer":0,
			"byteLength":1056,
			"byteOffset":52772,
			"target":34962
		},
		{
			"buffer":0,
			"byteLength":1056,
			"byteOffset":53828,
			"target":34962
		},
		{
			"buffer":0,
			"byteLength":528,
			"byteOffset":54884,
			"target":34962
		},
		{
			"buffer":0,
			"byteLength":2112,
			"byteOffset":55412,
			"target":34962
		},
		{
			"buffer":0,
			"byteLength":1014,
			"byteOffset":57524,
			"target":34963
		},
		{
			"buffer":0,
			"byteLength":36,
			"byteOffset":58540,
			"target":34962
		},
		{
			"buffer":0,
			"byteLength":36,
			"byteOffset":58576,
			"target":34962
		},
		{
			"buffer":0,
			"byteLength":24,
			"byteOffset":58612,
			"target":34962
		},
		{
			"buffer":0,
			"byteLength":24,
			"byteOffset":58636,
			"target":34962
		},
		{
			"buffer":0,
			"byteLength":12,
			"byteOffset":58660,
			"target":34962
		},
		{
			"buffer":0,
			"byteLength":48,
			"byteOffset":58672,
			"target":34962
		},
		{
			"buffer":0,
			"byteLength":6,
			"byteOffset":58720,
			"target":34963
		},
		{
			"buffer":0,
			"byteLength":4956,
			"byteOffset":58728,
			"target":34962
		},
		{
			"buffer":0,
			"byteLength":4956,
			"byteOffset":63684,
			"target":34962
		},
		{
			"buffer":0,
			"byteLength":3304,
			"byteOffset":68640,
			"target":34962
		},
		{
			"buffer":0,
			"byteLength":3304,
			"byteOffset":71944,
			"target":34962
		},
		{
			"buffer":0,
			"byteLength":1652,
			"byteOffset":75248,
			"target":34962
		},
		{
			"buffer":0,
			"byteLength":6608,
			"byteOffset":76900,
			"target":34962
		},
		{
			"buffer":0,
			"byteLength":2616,
			"byteOffset":83508,
			"target":34963
		},
		{
			"buffer":0,
			"byteLength":156,
			"byteOffset":86124,
			"target":34962
		},
		{
			"buffer":0,
			"byteLength":156,
			"byteOffset":86280,
			"target":34962
		},
		{
			"buffer":0,
			"byteLength":104,
			"byteOffset":86436,
			"target":34962
		},
		{
			"buffer":0,
			"byteLength":104,
			"byteOffset":86540,
			"target":34962
		},
		{
			"buffer":0,
			"byteLength":52,
			"byteOffset":86644,
			"target":34962
		},
		{
			"buffer":0,
			"byteLength":208,
			"byteOffset":86696,
			"target":34962
		},
		{
			"buffer":0,
			"byteLength":90,
			"byteOffset":86904,
			"target":34963
		},
		{
			"buffer":0,
			"byteLength":36,
			"byteOffset":86996,
			"target":34962
		},
		{
			"buffer":0,
			"byteLength":36,
			"byteOffset":87032,
			"target":34962
		},
		{
			"buffer":0,
			"byteLength":24,
			"byteOffset":87068,
			"target":34962
		},
		{
			"buffer":0,
			"byteLength":24,
			"byteOffset":87092,
			"target":34962
		},
		{
			"buffer":0,
			"byteLength":12,
			"byteOffset":87116,
			"target":34962
		},
		{
			"buffer":0,
			"byteLength":48,
			"byteOffset":87128,
			"target":34962
		},
		{
			"buffer":0,
			"byteLength":156,
			"byteOffset":87176,
			"target":34962
		},
		{
			"buffer":0,
			"byteLength":156,
			"byteOffset":87332,
			"target":34962
		},
		{
			"buffer":0,
			"byteLength":104,
			"byteOffset":87488,
			"target":34962
		},
		{
			"buffer":0,
			"byteLength":104,
			"byteOffset":87592,
			"target":34962
		},
		{
			"buffer":0,
			"byteLength":52,
			"byteOffset":87696,
			"target":34962
		},
		{
			"buffer":0,
			"byteLength":208,
			"byteOffset":87748,
			"target":34962
		},
		{
			"buffer":0,
			"byteLength":90,
			"byteOffset":87956,
			"target":34963
		},
		{
			"buffer":0,
			"byteLength":1856,
			"byteOffset":88048
		}
	],
	"samplers":[
		{
			"magFilter":9729,
			"minFilter":9987,
			"wrapS":33071,
			"wrapT":33071
		}
	],
	"buffers":[
		{
			"byteLength":89904,
			"uri":"Waluigi.bin"
		}
	]
}
