{
	"asset":{
		"generator":"Khronos glTF Blender I/O v4.2.69",
		"version":"2.0"
	},
	"scene":0,
	"scenes":[
		{
			"name":"Scene",
			"nodes":[
				30
			]
		}
	],
	"nodes":[
		{
			"name":"M_foot_R",
			"rotation":[
				-1.5858677215874195e-07,
				-5.820766091346741e-11,
				-4.9246809794567525e-05,
				1
			],
			"translation":[
				-0.002013709396123886,
				4.380941390991211e-06,
				6.813555955886841e-06
			]
		},
		{
			"children":[
				0
			],
			"name":"jnt_foot_R",
			"rotation":[
				1.2776581570506096e-07,
				2.3283064365386963e-10,
				1,
				3.765308065339923e-09
			],
			"scale":[
				1,
				0.9999999403953552,
				1
			],
			"translation":[
				-1.7136335372924805e-07,
				1.2814998626708984e-06,
				1.1548399925231934e-06
			]
		},
		{
			"children":[
				1
			],
			"name":"chn_foot_R",
			"rotation":[
				0.0020112216006964445,
				-0.0007247322937473655,
				-0.002874918282032013,
				0.9999935626983643
			],
			"scale":[
				1,
				1,
				0.9999998807907104
			],
			"translation":[
				20.284143447875977,
				2.4828150272369385,
				-0.04971567541360855
			]
		},
		{
			"children":[
				2
			],
			"name":"jnt_leg_R2",
			"rotation":[
				5.3880398809269536e-08,
				-1.0221282309430535e-06,
				0.05390222743153572,
				0.9985461831092834
			],
			"translation":[
				20.804290771484375,
				-4.750490188598633e-05,
				3.8880854845047e-05
			]
		},
		{
			"children":[
				3
			],
			"name":"jnt_leg_R1",
			"rotation":[
				4.528150299165645e-08,
				1.8338143226159787e-09,
				-0.017254779115319252,
				0.9998511075973511
			],
			"scale":[
				1,
				0.9999998807907104,
				1
			],
			"translation":[
				8.017110824584961,
				2.2388229370117188,
				-11.280077934265137
			]
		},
		{
			"name":"M_foot_L",
			"rotation":[
				-1.3660610420629382e-07,
				1.1641532182693481e-10,
				-4.9230122385779396e-05,
				1
			],
			"translation":[
				-0.0019548162817955017,
				-2.682209014892578e-07,
				5.46872615814209e-06
			]
		},
		{
			"children":[
				5
			],
			"name":"jnt_foot_L",
			"rotation":[
				-1.0069925338029861e-07,
				-8.585629984736443e-10,
				-1,
				2.9103830456733704e-10
			],
			"translation":[
				9.834766387939453e-07,
				-2.9802322387695312e-08,
				-3.46451997756958e-07
			]
		},
		{
			"children":[
				6
			],
			"name":"chn_foot_L",
			"rotation":[
				0.0026916698552668095,
				-0.005700760055333376,
				0.0013094459427520633,
				0.9999792575836182
			],
			"scale":[
				1,
				0.9999999403953552,
				0.9999998807907104
			],
			"translation":[
				19.795581817626953,
				1.4828107357025146,
				0.13926522433757782
			]
		},
		{
			"children":[
				7
			],
			"name":"jnt_leg_L2",
			"rotation":[
				6.54769536367894e-08,
				-1.0081089385494124e-06,
				0.05390216037631035,
				0.9985462427139282
			],
			"scale":[
				0.9999999403953552,
				0.9999999403953552,
				0.9999999403953552
			],
			"translation":[
				20.804296493530273,
				-4.774332046508789e-05,
				4.2397528886795044e-05
			]
		},
		{
			"children":[
				8
			],
			"name":"jnt_leg_L1",
			"rotation":[
				2.2850251468753413e-08,
				2.264524123773981e-09,
				-0.017254753038287163,
				0.9998511075973511
			],
			"scale":[
				1,
				0.9999999403953552,
				1
			],
			"translation":[
				8.017088890075684,
				2.2388134002685547,
				11.280113220214844
			]
		},
		{
			"children":[
				4,
				9
			],
			"name":"jnt_waist",
			"rotation":[
				-0.5000000596046448,
				0.49995142221450806,
				-0.5000004768371582,
				0.5000481009483337
			],
			"translation":[
				1.3593307812698185e-08,
				-1.6723993212508503e-06,
				-3.899913281202316e-09
			]
		},
		{
			"name":"M_hand1_R",
			"rotation":[
				-2.6830093702301383e-11,
				4.746425474877469e-11,
				-1.4889980803900471e-08,
				1
			],
			"translation":[
				5.1371753215789795e-06,
				7.962808012962341e-07,
				1.6932026483118534e-05
			]
		},
		{
			"children":[
				11
			],
			"name":"jnt_hand_R",
			"rotation":[
				9.26345023799513e-07,
				-1.1532753205756308e-06,
				0.11860350519418716,
				0.9929417371749878
			],
			"scale":[
				1,
				0.9999999403953552,
				1
			],
			"translation":[
				11.997598648071289,
				0.005382774397730827,
				1.0416930308565497e-05
			]
		},
		{
			"children":[
				12
			],
			"name":"jnt_arm_R2",
			"rotation":[
				-5.811814480694011e-05,
				-3.624742748797871e-05,
				-0.20561018586158752,
				0.9786339998245239
			],
			"scale":[
				0.9999999403953552,
				0.9999998807907104,
				1
			],
			"translation":[
				13.656599044799805,
				2.8479844331741333e-06,
				-2.0023850083816797e-05
			]
		},
		{
			"children":[
				13
			],
			"name":"jnt_arm_R1",
			"rotation":[
				0.7005773186683655,
				0.09562252461910248,
				0.2048770636320114,
				0.6768110394477844
			],
			"scale":[
				0.9999999403953552,
				1,
				0.9999999403953552
			],
			"translation":[
				17.77998924255371,
				-0.42379656434059143,
				3.3961498737335205
			]
		},
		{
			"children":[
				14
			],
			"name":"jnt_sldr_R",
			"rotation":[
				0.3819306492805481,
				0.5950874090194702,
				-0.5950869917869568,
				0.38193124532699585
			],
			"scale":[
				0.9999998807907104,
				0.9999998211860657,
				0.9999999403953552
			],
			"translation":[
				29.896692276000977,
				-5.722395144402981e-06,
				0.048463623970746994
			]
		},
		{
			"name":"eff_sldr_L",
			"rotation":[
				2.4128894438035786e-08,
				-1.0379699233453721e-07,
				-4.476896720007062e-08,
				1
			],
			"translation":[
				17.700593948364258,
				-2.2499494662042707e-05,
				-1.2470874935388565e-05
			]
		},
		{
			"name":"M_hand1_L",
			"rotation":[
				2.7057467377744615e-11,
				3.7900349525443744e-11,
				2.443477953306683e-08,
				1
			],
			"translation":[
				3.7513673305511475e-06,
				1.0890653356909752e-06,
				3.264827682869509e-06
			]
		},
		{
			"children":[
				17
			],
			"name":"jnt_hand_L",
			"rotation":[
				2.537741238484159e-06,
				-2.4893168415474065e-08,
				0.11860368400812149,
				0.992941677570343
			],
			"scale":[
				0.9999999403953552,
				1.0000001192092896,
				1
			],
			"translation":[
				11.997599601745605,
				0.005390770733356476,
				5.762449291069061e-07
			]
		},
		{
			"children":[
				18
			],
			"name":"jnt_arm_L2",
			"rotation":[
				-8.901185992726823e-07,
				8.117618790492998e-07,
				-0.20546945929527283,
				0.9786635637283325
			],
			"scale":[
				0.9999999403953552,
				0.9999999403953552,
				0.9999999403953552
			],
			"translation":[
				13.656604766845703,
				1.4808028936386108e-07,
				-3.246546839363873e-06
			]
		},
		{
			"children":[
				19
			],
			"name":"jnt_arm_L1",
			"rotation":[
				-0.7005773782730103,
				-0.09562265127897263,
				0.2048770934343338,
				0.6768109798431396
			],
			"scale":[
				1,
				0.9999999403953552,
				0.9999998807907104
			],
			"translation":[
				17.779991149902344,
				-0.42378517985343933,
				-3.39614200592041
			]
		},
		{
			"children":[
				16,
				20
			],
			"name":"jnt_sldr_L",
			"rotation":[
				-0.38192975521087646,
				-0.595088005065918,
				-0.5950875282287598,
				0.3819303810596466
			],
			"scale":[
				0.9999998807907104,
				1.0000001192092896,
				1
			],
			"translation":[
				29.896699905395508,
				-3.815715899690986e-06,
				-0.0483572781085968
			]
		},
		{
			"name":"M_head_cap1",
			"rotation":[
				1.573994268255774e-10,
				3.028617356903851e-10,
				-8.203642209991813e-10,
				1
			],
			"translation":[
				2.7568603400141e-08,
				-1.2936230632476509e-05,
				7.12461769580841e-08
			]
		},
		{
			"name":"M_head",
			"rotation":[
				1.573994268255774e-10,
				3.028617356903851e-10,
				-8.203642209991813e-10,
				1
			],
			"translation":[
				2.7568603400141e-08,
				-1.2936230632476509e-05,
				7.12461769580841e-08
			]
		},
		{
			"children":[
				22,
				23
			],
			"name":"jnt_head",
			"rotation":[
				0.001388146192766726,
				0.0015256680781021714,
				0.7075451016426086,
				0.7066652178764343
			],
			"scale":[
				1,
				0.9999999403953552,
				1
			],
			"translation":[
				40.703948974609375,
				-1.3830089569091797,
				-0.0021776906214654446
			]
		},
		{
			"children":[
				15,
				21,
				24
			],
			"name":"jnt_chest",
			"rotation":[
				-6.9993592433093e-07,
				6.091112823014555e-07,
				0.7070724368095398,
				0.707141101360321
			],
			"translation":[
				-1.950866135302931e-10,
				2.4533608211640967e-06,
				-2.0474999473663047e-09
			]
		},
		{
			"children":[
				25
			],
			"name":"chn_chest",
			"rotation":[
				0.0023717719595879316,
				-0.6966560482978821,
				0.0028481425251811743,
				0.7173957228660583
			],
			"scale":[
				0.9999998807907104,
				1,
				0.9999999403953552
			],
			"translation":[
				0.011690358631312847,
				3.311817272333428e-05,
				0.0008828061982057989
			]
		},
		{
			"children":[
				10,
				26
			],
			"name":"center",
			"rotation":[
				-0.0032559027895331383,
				0.9999108910560608,
				-0.0003424861642997712,
				0.012943867594003677
			],
			"scale":[
				0.9999999403953552,
				0.9999998807907104,
				1
			],
			"translation":[
				0.010100509971380234,
				56.43752670288086,
				0.0011005403939634562
			]
		},
		{
			"children":[
				27
			],
			"name":"mdl1",
			"rotation":[
				-8.557136332854043e-09,
				1.7114272665708086e-08,
				-2.928983286277023e-16,
				1
			]
		},
		{
			"mesh":0,
			"name":"Mesh_0",
			"skin":0
		},
		{
			"children":[
				29,
				28
			],
			"name":"Armature"
		}
	],
	"materials":[
		{
			"doubleSided":true,
			"name":"_mat_head(2)",
			"pbrMetallicRoughness":{
				"baseColorTexture":{
					"index":0
				},
				"metallicFactor":0
			}
		},
		{
			"name":"_mat_head",
			"pbrMetallicRoughness":{
				"baseColorTexture":{
					"index":1
				},
				"metallicFactor":0
			}
		},
		{
			"name":"_mat_head(3)",
			"pbrMetallicRoughness":{
				"baseColorTexture":{
					"index":2
				},
				"metallicFactor":0
			}
		},
		{
			"name":"_mat_head(4)",
			"pbrMetallicRoughness":{
				"baseColorTexture":{
					"index":3
				},
				"metallicFactor":0
			}
		},
		{
			"name":"_mat_head(5)",
			"pbrMetallicRoughness":{
				"baseColorTexture":{
					"index":4
				},
				"metallicFactor":0
			}
		},
		{
			"name":"_mat_head(6)",
			"pbrMetallicRoughness":{
				"baseColorTexture":{
					"index":5
				},
				"metallicFactor":0
			}
		},
		{
			"name":"_mat_head(7)",
			"pbrMetallicRoughness":{
				"baseColorTexture":{
					"index":6
				},
				"metallicFactor":0
			}
		},
		{
			"name":"_mat_head(8)",
			"pbrMetallicRoughness":{
				"baseColorTexture":{
					"index":7
				},
				"metallicFactor":0
			}
		},
		{
			"name":"_mat_eye_L",
			"pbrMetallicRoughness":{
				"baseColorTexture":{
					"index":8
				},
				"metallicFactor":0
			}
		},
		{
			"name":"_mat_eye_R",
			"pbrMetallicRoughness":{
				"baseColorTexture":{
					"index":9
				},
				"metallicFactor":0
			}
		},
		{
			"name":"_mat_mouse",
			"pbrMetallicRoughness":{
				"baseColorTexture":{
					"index":10
				},
				"metallicFactor":0
			}
		}
	],
	"meshes":[
		{
			"name":"Mesh_0",
			"primitives":[
				{
					"attributes":{
						"POSITION":0,
						"NORMAL":1,
						"TEXCOORD_0":2,
						"TEXCOORD_1":3,
						"COLOR_0":4,
						"COLOR_1":5,
						"JOINTS_0":6,
						"WEIGHTS_0":7
					},
					"indices":8,
					"material":0
				},
				{
					"attributes":{
						"POSITION":9,
						"NORMAL":10,
						"TEXCOORD_0":11,
						"TEXCOORD_1":12,
						"COLOR_0":13,
						"COLOR_1":14,
						"JOINTS_0":15,
						"WEIGHTS_0":16
					},
					"indices":17,
					"material":1
				},
				{
					"attributes":{
						"POSITION":18,
						"NORMAL":19,
						"TEXCOORD_0":20,
						"TEXCOORD_1":21,
						"COLOR_0":22,
						"COLOR_1":23,
						"JOINTS_0":24,
						"WEIGHTS_0":25
					},
					"indices":26,
					"material":2
				},
				{
					"attributes":{
						"POSITION":27,
						"NORMAL":28,
						"TEXCOORD_0":29,
						"TEXCOORD_1":30,
						"COLOR_0":31,
						"COLOR_1":32,
						"JOINTS_0":33,
						"WEIGHTS_0":34
					},
					"indices":35,
					"material":3
				},
				{
					"attributes":{
						"POSITION":36,
						"NORMAL":37,
						"TEXCOORD_0":38,
						"TEXCOORD_1":39,
						"COLOR_0":40,
						"COLOR_1":41,
						"JOINTS_0":42,
						"WEIGHTS_0":43
					},
					"indices":44,
					"material":4
				},
				{
					"attributes":{
						"POSITION":45,
						"NORMAL":46,
						"TEXCOORD_0":47,
						"TEXCOORD_1":48,
						"COLOR_0":49,
						"COLOR_1":50,
						"JOINTS_0":51,
						"WEIGHTS_0":52
					},
					"indices":53,
					"material":5
				},
				{
					"attributes":{
						"POSITION":54,
						"NORMAL":55,
						"TEXCOORD_0":56,
						"TEXCOORD_1":57,
						"COLOR_0":58,
						"COLOR_1":59,
						"JOINTS_0":60,
						"WEIGHTS_0":61
					},
					"indices":62,
					"material":6
				},
				{
					"attributes":{
						"POSITION":63,
						"NORMAL":64,
						"TEXCOORD_0":65,
						"TEXCOORD_1":66,
						"COLOR_0":67,
						"COLOR_1":68,
						"JOINTS_0":69,
						"WEIGHTS_0":70
					},
					"indices":71,
					"material":7
				},
				{
					"attributes":{
						"POSITION":72,
						"NORMAL":73,
						"TEXCOORD_0":74,
						"TEXCOORD_1":75,
						"COLOR_0":76,
						"COLOR_1":77,
						"JOINTS_0":78,
						"WEIGHTS_0":79
					},
					"indices":80,
					"material":8
				},
				{
					"attributes":{
						"POSITION":81,
						"NORMAL":82,
						"TEXCOORD_0":83,
						"TEXCOORD_1":84,
						"COLOR_0":85,
						"COLOR_1":86,
						"JOINTS_0":87,
						"WEIGHTS_0":88
					},
					"indices":89,
					"material":9
				},
				{
					"attributes":{
						"POSITION":90,
						"NORMAL":91,
						"TEXCOORD_0":92,
						"TEXCOORD_1":93,
						"COLOR_0":94,
						"COLOR_1":95,
						"JOINTS_0":96,
						"WEIGHTS_0":97
					},
					"indices":62,
					"material":10
				}
			]
		}
	],
	"textures":[
		{
			"sampler":0,
			"source":0
		},
		{
			"sampler":0,
			"source":0
		},
		{
			"sampler":0,
			"source":0
		},
		{
			"sampler":0,
			"source":0
		},
		{
			"sampler":0,
			"source":0
		},
		{
			"sampler":0,
			"source":0
		},
		{
			"sampler":0,
			"source":0
		},
		{
			"sampler":0,
			"source":0
		},
		{
			"sampler":0,
			"source":1
		},
		{
			"sampler":0,
			"source":1
		},
		{
			"sampler":0,
			"source":2
		}
	],
	"images":[
		{
			"mimeType":"image/png",
			"name":"Wario_0",
			"uri":"Wario_0.png"
		},
		{
			"mimeType":"image/png",
			"name":"Wario_1",
			"uri":"Wario_1.png"
		},
		{
			"mimeType":"image/png",
			"name":"Wario_2",
			"uri":"Wario_2.png"
		}
	],
	"skins":[
		{
			"inverseBindMatrices":98,
			"joints":[
				28,
				27,
				10,
				4,
				3,
				2,
				1,
				0,
				9,
				8,
				7,
				6,
				5,
				26,
				25,
				15,
				14,
				13,
				12,
				11,
				21,
				16,
				20,
				19,
				18,
				17,
				24,
				22,
				23
			],
			"name":"Armature"
		}
	],
	"accessors":[
		{
			"bufferView":0,
			"componentType":5126,
			"count":252,
			"max":[
				45.02778625488281,
				93.2428207397461,
				38.820404052734375
			],
			"min":[
				-45.01111602783203,
				35.14854049682617,
				-32.475181579589844
			],
			"type":"VEC3"
		},
		{
			"bufferView":1,
			"componentType":5126,
			"count":252,
			"type":"VEC3"
		},
		{
			"bufferView":2,
			"componentType":5126,
			"count":252,
			"type":"VEC2"
		},
		{
			"bufferView":3,
			"componentType":5126,
			"count":252,
			"type":"VEC2"
		},
		{
			"bufferView":4,
			"componentType":5126,
			"count":252,
			"type":"VEC3"
		},
		{
			"bufferView":5,
			"componentType":5126,
			"count":252,
			"type":"VEC3"
		},
		{
			"bufferView":6,
			"componentType":5121,
			"count":252,
			"type":"VEC4"
		},
		{
			"bufferView":7,
			"componentType":5126,
			"count":252,
			"type":"VEC4"
		},
		{
			"bufferView":8,
			"componentType":5123,
			"count":528,
			"type":"SCALAR"
		},
		{
			"bufferView":9,
			"componentType":5126,
			"count":257,
			"max":[
				60.49935531616211,
				97.64459228515625,
				30.257705688476562
			],
			"min":[
				-60.460693359375,
				-0.8391059041023254,
				-30.96276092529297
			],
			"type":"VEC3"
		},
		{
			"bufferView":10,
			"componentType":5126,
			"count":257,
			"type":"VEC3"
		},
		{
			"bufferView":11,
			"componentType":5126,
			"count":257,
			"type":"VEC2"
		},
		{
			"bufferView":12,
			"componentType":5126,
			"count":257,
			"type":"VEC2"
		},
		{
			"bufferView":13,
			"componentType":5126,
			"count":257,
			"type":"VEC3"
		},
		{
			"bufferView":14,
			"componentType":5126,
			"count":257,
			"type":"VEC3"
		},
		{
			"bufferView":15,
			"componentType":5121,
			"count":257,
			"type":"VEC4"
		},
		{
			"bufferView":16,
			"componentType":5126,
			"count":257,
			"type":"VEC4"
		},
		{
			"bufferView":17,
			"componentType":5123,
			"count":1026,
			"type":"SCALAR"
		},
		{
			"bufferView":18,
			"componentType":5126,
			"count":66,
			"max":[
				29.411182403564453,
				33.56881332397461,
				10.125033378601074
			],
			"min":[
				16.022579193115234,
				-3.630476474761963,
				-7.510686874389648
			],
			"type":"VEC3"
		},
		{
			"bufferView":19,
			"componentType":5126,
			"count":66,
			"type":"VEC3"
		},
		{
			"bufferView":20,
			"componentType":5126,
			"count":66,
			"type":"VEC2"
		},
		{
			"bufferView":21,
			"componentType":5126,
			"count":66,
			"type":"VEC2"
		},
		{
			"bufferView":22,
			"componentType":5126,
			"count":66,
			"type":"VEC3"
		},
		{
			"bufferView":23,
			"componentType":5126,
			"count":66,
			"type":"VEC3"
		},
		{
			"bufferView":24,
			"componentType":5121,
			"count":66,
			"type":"VEC4"
		},
		{
			"bufferView":25,
			"componentType":5126,
			"count":66,
			"type":"VEC4"
		},
		{
			"bufferView":26,
			"componentType":5123,
			"count":192,
			"type":"SCALAR"
		},
		{
			"bufferView":27,
			"componentType":5126,
			"count":68,
			"max":[
				-15.50777530670166,
				33.34446334838867,
				7.464624881744385
			],
			"min":[
				-29.572126388549805,
				-3.629984140396118,
				-9.897066116333008
			],
			"type":"VEC3"
		},
		{
			"bufferView":28,
			"componentType":5126,
			"count":68,
			"type":"VEC3"
		},
		{
			"bufferView":29,
			"componentType":5126,
			"count":68,
			"type":"VEC2"
		},
		{
			"bufferView":30,
			"componentType":5126,
			"count":68,
			"type":"VEC2"
		},
		{
			"bufferView":31,
			"componentType":5126,
			"count":68,
			"type":"VEC3"
		},
		{
			"bufferView":32,
			"componentType":5126,
			"count":68,
			"type":"VEC3"
		},
		{
			"bufferView":33,
			"componentType":5121,
			"count":68,
			"type":"VEC4"
		},
		{
			"bufferView":34,
			"componentType":5126,
			"count":68,
			"type":"VEC4"
		},
		{
			"bufferView":35,
			"componentType":5123,
			"count":192,
			"type":"SCALAR"
		},
		{
			"bufferView":36,
			"componentType":5126,
			"count":166,
			"max":[
				-59.473121643066406,
				100.82911682128906,
				17.463579177856445
			],
			"min":[
				-104.48297119140625,
				76.8233871459961,
				-16.739408493041992
			],
			"type":"VEC3"
		},
		{
			"bufferView":37,
			"componentType":5126,
			"count":166,
			"type":"VEC3"
		},
		{
			"bufferView":38,
			"componentType":5126,
			"count":166,
			"type":"VEC2"
		},
		{
			"bufferView":39,
			"componentType":5126,
			"count":166,
			"type":"VEC2"
		},
		{
			"bufferView":40,
			"componentType":5126,
			"count":166,
			"type":"VEC3"
		},
		{
			"bufferView":41,
			"componentType":5126,
			"count":166,
			"type":"VEC3"
		},
		{
			"bufferView":42,
			"componentType":5121,
			"count":166,
			"type":"VEC4"
		},
		{
			"bufferView":43,
			"componentType":5126,
			"count":166,
			"type":"VEC4"
		},
		{
			"bufferView":44,
			"componentType":5123,
			"count":507,
			"type":"SCALAR"
		},
		{
			"bufferView":45,
			"componentType":5126,
			"count":155,
			"max":[
				104.77307891845703,
				100.88978576660156,
				16.15668296813965
			],
			"min":[
				59.88163375854492,
				76.97627258300781,
				-17.96530532836914
			],
			"type":"VEC3"
		},
		{
			"bufferView":46,
			"componentType":5126,
			"count":155,
			"type":"VEC3"
		},
		{
			"bufferView":47,
			"componentType":5126,
			"count":155,
			"type":"VEC2"
		},
		{
			"bufferView":48,
			"componentType":5126,
			"count":155,
			"type":"VEC2"
		},
		{
			"bufferView":49,
			"componentType":5126,
			"count":155,
			"type":"VEC3"
		},
		{
			"bufferView":50,
			"componentType":5126,
			"count":155,
			"type":"VEC3"
		},
		{
			"bufferView":51,
			"componentType":5121,
			"count":155,
			"type":"VEC4"
		},
		{
			"bufferView":52,
			"componentType":5126,
			"count":155,
			"type":"VEC4"
		},
		{
			"bufferView":53,
			"componentType":5123,
			"count":507,
			"type":"SCALAR"
		},
		{
			"bufferView":54,
			"componentType":5126,
			"count":3,
			"max":[
				-3.913290500640869,
				84.05387878417969,
				-5.614706993103027
			],
			"min":[
				-5.773159027099609,
				82.60638427734375,
				-7.8149309158325195
			],
			"type":"VEC3"
		},
		{
			"bufferView":55,
			"componentType":5126,
			"count":3,
			"type":"VEC3"
		},
		{
			"bufferView":56,
			"componentType":5126,
			"count":3,
			"type":"VEC2"
		},
		{
			"bufferView":57,
			"componentType":5126,
			"count":3,
			"type":"VEC2"
		},
		{
			"bufferView":58,
			"componentType":5126,
			"count":3,
			"type":"VEC3"
		},
		{
			"bufferView":59,
			"componentType":5126,
			"count":3,
			"type":"VEC3"
		},
		{
			"bufferView":60,
			"componentType":5121,
			"count":3,
			"type":"VEC4"
		},
		{
			"bufferView":61,
			"componentType":5126,
			"count":3,
			"type":"VEC4"
		},
		{
			"bufferView":62,
			"componentType":5123,
			"count":3,
			"type":"SCALAR"
		},
		{
			"bufferView":63,
			"componentType":5126,
			"count":283,
			"max":[
				41.588558197021484,
				122.14936828613281,
				43.572574615478516
			],
			"min":[
				-41.8006706237793,
				73.67930603027344,
				-25.597688674926758
			],
			"type":"VEC3"
		},
		{
			"bufferView":64,
			"componentType":5126,
			"count":283,
			"type":"VEC3"
		},
		{
			"bufferView":65,
			"componentType":5126,
			"count":283,
			"type":"VEC2"
		},
		{
			"bufferView":66,
			"componentType":5126,
			"count":283,
			"type":"VEC2"
		},
		{
			"bufferView":67,
			"componentType":5126,
			"count":283,
			"type":"VEC3"
		},
		{
			"bufferView":68,
			"componentType":5126,
			"count":283,
			"type":"VEC3"
		},
		{
			"bufferView":69,
			"componentType":5121,
			"count":283,
			"type":"VEC4"
		},
		{
			"bufferView":70,
			"componentType":5126,
			"count":283,
			"type":"VEC4"
		},
		{
			"bufferView":71,
			"componentType":5123,
			"count":747,
			"type":"SCALAR"
		},
		{
			"bufferView":72,
			"componentType":5126,
			"count":10,
			"max":[
				22.92268180847168,
				122.14936828613281,
				33.44771957397461
			],
			"min":[
				0.04309675097465515,
				94.98175811767578,
				15.377493858337402
			],
			"type":"VEC3"
		},
		{
			"bufferView":73,
			"componentType":5126,
			"count":10,
			"type":"VEC3"
		},
		{
			"bufferView":74,
			"componentType":5126,
			"count":10,
			"type":"VEC2"
		},
		{
			"bufferView":75,
			"componentType":5126,
			"count":10,
			"type":"VEC2"
		},
		{
			"bufferView":76,
			"componentType":5126,
			"count":10,
			"type":"VEC3"
		},
		{
			"bufferView":77,
			"componentType":5126,
			"count":10,
			"type":"VEC3"
		},
		{
			"bufferView":78,
			"componentType":5121,
			"count":10,
			"type":"VEC4"
		},
		{
			"bufferView":79,
			"componentType":5126,
			"count":10,
			"type":"VEC4"
		},
		{
			"bufferView":80,
			"componentType":5123,
			"count":18,
			"type":"SCALAR"
		},
		{
			"bufferView":81,
			"componentType":5126,
			"count":8,
			"max":[
				0.14732427895069122,
				122.00634002685547,
				33.44771957397461
			],
			"min":[
				-22.844440460205078,
				94.98175811767578,
				15.526055335998535
			],
			"type":"VEC3"
		},
		{
			"bufferView":82,
			"componentType":5126,
			"count":8,
			"type":"VEC3"
		},
		{
			"bufferView":83,
			"componentType":5126,
			"count":8,
			"type":"VEC2"
		},
		{
			"bufferView":84,
			"componentType":5126,
			"count":8,
			"type":"VEC2"
		},
		{
			"bufferView":85,
			"componentType":5126,
			"count":8,
			"type":"VEC3"
		},
		{
			"bufferView":86,
			"componentType":5126,
			"count":8,
			"type":"VEC3"
		},
		{
			"bufferView":87,
			"componentType":5121,
			"count":8,
			"type":"VEC4"
		},
		{
			"bufferView":88,
			"componentType":5126,
			"count":8,
			"type":"VEC4"
		},
		{
			"bufferView":89,
			"componentType":5123,
			"count":18,
			"type":"SCALAR"
		},
		{
			"bufferView":90,
			"componentType":5126,
			"count":3,
			"max":[
				-5.214540481567383,
				39.828590393066406,
				3.8793256282806396
			],
			"min":[
				-8.633971214294434,
				35.345306396484375,
				0.16607357561588287
			],
			"type":"VEC3"
		},
		{
			"bufferView":91,
			"componentType":5126,
			"count":3,
			"type":"VEC3"
		},
		{
			"bufferView":92,
			"componentType":5126,
			"count":3,
			"type":"VEC2"
		},
		{
			"bufferView":93,
			"componentType":5126,
			"count":3,
			"type":"VEC2"
		},
		{
			"bufferView":94,
			"componentType":5126,
			"count":3,
			"type":"VEC3"
		},
		{
			"bufferView":95,
			"componentType":5126,
			"count":3,
			"type":"VEC3"
		},
		{
			"bufferView":96,
			"componentType":5121,
			"count":3,
			"type":"VEC4"
		},
		{
			"bufferView":97,
			"componentType":5126,
			"count":3,
			"type":"VEC4"
		},
		{
			"bufferView":98,
			"componentType":5126,
			"count":29,
			"type":"MAT4"
		}
	],
	"bufferViews":[
		{
			"buffer":0,
			"byteLength":3024,
			"byteOffset":0,
			"target":34962
		},
		{
			"buffer":0,
			"byteLength":3024,
			"byteOffset":3024,
			"target":34962
		},
		{
			"buffer":0,
			"byteLength":2016,
			"byteOffset":6048,
			"target":34962
		},
		{
			"buffer":0,
			"byteLength":2016,
			"byteOffset":8064,
			"target":34962
		},
		{
			"buffer":0,
			"byteLength":3024,
			"byteOffset":10080,
			"target":34962
		},
		{
			"buffer":0,
			"byteLength":3024,
			"byteOffset":13104,
			"target":34962
		},
		{
			"buffer":0,
			"byteLength":1008,
			"byteOffset":16128,
			"target":34962
		},
		{
			"buffer":0,
			"byteLength":4032,
			"byteOffset":17136,
			"target":34962
		},
		{
			"buffer":0,
			"byteLength":1056,
			"byteOffset":21168,
			"target":34963
		},
		{
			"buffer":0,
			"byteLength":3084,
			"byteOffset":22224,
			"target":34962
		},
		{
			"buffer":0,
			"byteLength":3084,
			"byteOffset":25308,
			"target":34962
		},
		{
			"buffer":0,
			"byteLength":2056,
			"byteOffset":28392,
			"target":34962
		},
		{
			"buffer":0,
			"byteLength":2056,
			"byteOffset":30448,
			"target":34962
		},
		{
			"buffer":0,
			"byteLength":3084,
			"byteOffset":32504,
			"target":34962
		},
		{
			"buffer":0,
			"byteLength":3084,
			"byteOffset":35588,
			"target":34962
		},
		{
			"buffer":0,
			"byteLength":1028,
			"byteOffset":38672,
			"target":34962
		},
		{
			"buffer":0,
			"byteLength":4112,
			"byteOffset":39700,
			"target":34962
		},
		{
			"buffer":0,
			"byteLength":2052,
			"byteOffset":43812,
			"target":34963
		},
		{
			"buffer":0,
			"byteLength":792,
			"byteOffset":45864,
			"target":34962
		},
		{
			"buffer":0,
			"byteLength":792,
			"byteOffset":46656,
			"target":34962
		},
		{
			"buffer":0,
			"byteLength":528,
			"byteOffset":47448,
			"target":34962
		},
		{
			"buffer":0,
			"byteLength":528,
			"byteOffset":47976,
			"target":34962
		},
		{
			"buffer":0,
			"byteLength":792,
			"byteOffset":48504,
			"target":34962
		},
		{
			"buffer":0,
			"byteLength":792,
			"byteOffset":49296,
			"target":34962
		},
		{
			"buffer":0,
			"byteLength":264,
			"byteOffset":50088,
			"target":34962
		},
		{
			"buffer":0,
			"byteLength":1056,
			"byteOffset":50352,
			"target":34962
		},
		{
			"buffer":0,
			"byteLength":384,
			"byteOffset":51408,
			"target":34963
		},
		{
			"buffer":0,
			"byteLength":816,
			"byteOffset":51792,
			"target":34962
		},
		{
			"buffer":0,
			"byteLength":816,
			"byteOffset":52608,
			"target":34962
		},
		{
			"buffer":0,
			"byteLength":544,
			"byteOffset":53424,
			"target":34962
		},
		{
			"buffer":0,
			"byteLength":544,
			"byteOffset":53968,
			"target":34962
		},
		{
			"buffer":0,
			"byteLength":816,
			"byteOffset":54512,
			"target":34962
		},
		{
			"buffer":0,
			"byteLength":816,
			"byteOffset":55328,
			"target":34962
		},
		{
			"buffer":0,
			"byteLength":272,
			"byteOffset":56144,
			"target":34962
		},
		{
			"buffer":0,
			"byteLength":1088,
			"byteOffset":56416,
			"target":34962
		},
		{
			"buffer":0,
			"byteLength":384,
			"byteOffset":57504,
			"target":34963
		},
		{
			"buffer":0,
			"byteLength":1992,
			"byteOffset":57888,
			"target":34962
		},
		{
			"buffer":0,
			"byteLength":1992,
			"byteOffset":59880,
			"target":34962
		},
		{
			"buffer":0,
			"byteLength":1328,
			"byteOffset":61872,
			"target":34962
		},
		{
			"buffer":0,
			"byteLength":1328,
			"byteOffset":63200,
			"target":34962
		},
		{
			"buffer":0,
			"byteLength":1992,
			"byteOffset":64528,
			"target":34962
		},
		{
			"buffer":0,
			"byteLength":1992,
			"byteOffset":66520,
			"target":34962
		},
		{
			"buffer":0,
			"byteLength":664,
			"byteOffset":68512,
			"target":34962
		},
		{
			"buffer":0,
			"byteLength":2656,
			"byteOffset":69176,
			"target":34962
		},
		{
			"buffer":0,
			"byteLength":1014,
			"byteOffset":71832,
			"target":34963
		},
		{
			"buffer":0,
			"byteLength":1860,
			"byteOffset":72848,
			"target":34962
		},
		{
			"buffer":0,
			"byteLength":1860,
			"byteOffset":74708,
			"target":34962
		},
		{
			"buffer":0,
			"byteLength":1240,
			"byteOffset":76568,
			"target":34962
		},
		{
			"buffer":0,
			"byteLength":1240,
			"byteOffset":77808,
			"target":34962
		},
		{
			"buffer":0,
			"byteLength":1860,
			"byteOffset":79048,
			"target":34962
		},
		{
			"buffer":0,
			"byteLength":1860,
			"byteOffset":80908,
			"target":34962
		},
		{
			"buffer":0,
			"byteLength":620,
			"byteOffset":82768,
			"target":34962
		},
		{
			"buffer":0,
			"byteLength":2480,
			"byteOffset":83388,
			"target":34962
		},
		{
			"buffer":0,
			"byteLength":1014,
			"byteOffset":85868,
			"target":34963
		},
		{
			"buffer":0,
			"byteLength":36,
			"byteOffset":86884,
			"target":34962
		},
		{
			"buffer":0,
			"byteLength":36,
			"byteOffset":86920,
			"target":34962
		},
		{
			"buffer":0,
			"byteLength":24,
			"byteOffset":86956,
			"target":34962
		},
		{
			"buffer":0,
			"byteLength":24,
			"byteOffset":86980,
			"target":34962
		},
		{
			"buffer":0,
			"byteLength":36,
			"byteOffset":87004,
			"target":34962
		},
		{
			"buffer":0,
			"byteLength":36,
			"byteOffset":87040,
			"target":34962
		},
		{
			"buffer":0,
			"byteLength":12,
			"byteOffset":87076,
			"target":34962
		},
		{
			"buffer":0,
			"byteLength":48,
			"byteOffset":87088,
			"target":34962
		},
		{
			"buffer":0,
			"byteLength":6,
			"byteOffset":87136,
			"target":34963
		},
		{
			"buffer":0,
			"byteLength":3396,
			"byteOffset":87144,
			"target":34962
		},
		{
			"buffer":0,
			"byteLength":3396,
			"byteOffset":90540,
			"target":34962
		},
		{
			"buffer":0,
			"byteLength":2264,
			"byteOffset":93936,
			"target":34962
		},
		{
			"buffer":0,
			"byteLength":2264,
			"byteOffset":96200,
			"target":34962
		},
		{
			"buffer":0,
			"byteLength":3396,
			"byteOffset":98464,
			"target":34962
		},
		{
			"buffer":0,
			"byteLength":3396,
			"byteOffset":101860,
			"target":34962
		},
		{
			"buffer":0,
			"byteLength":1132,
			"byteOffset":105256,
			"target":34962
		},
		{
			"buffer":0,
			"byteLength":4528,
			"byteOffset":106388,
			"target":34962
		},
		{
			"buffer":0,
			"byteLength":1494,
			"byteOffset":110916,
			"target":34963
		},
		{
			"buffer":0,
			"byteLength":120,
			"byteOffset":112412,
			"target":34962
		},
		{
			"buffer":0,
			"byteLength":120,
			"byteOffset":112532,
			"target":34962
		},
		{
			"buffer":0,
			"byteLength":80,
			"byteOffset":112652,
			"target":34962
		},
		{
			"buffer":0,
			"byteLength":80,
			"byteOffset":112732,
			"target":34962
		},
		{
			"buffer":0,
			"byteLength":120,
			"byteOffset":112812,
			"target":34962
		},
		{
			"buffer":0,
			"byteLength":120,
			"byteOffset":112932,
			"target":34962
		},
		{
			"buffer":0,
			"byteLength":40,
			"byteOffset":113052,
			"target":34962
		},
		{
			"buffer":0,
			"byteLength":160,
			"byteOffset":113092,
			"target":34962
		},
		{
			"buffer":0,
			"byteLength":36,
			"byteOffset":113252,
			"target":34963
		},
		{
			"buffer":0,
			"byteLength":96,
			"byteOffset":113288,
			"target":34962
		},
		{
			"buffer":0,
			"byteLength":96,
			"byteOffset":113384,
			"target":34962
		},
		{
			"buffer":0,
			"byteLength":64,
			"byteOffset":113480,
			"target":34962
		},
		{
			"buffer":0,
			"byteLength":64,
			"byteOffset":113544,
			"target":34962
		},
		{
			"buffer":0,
			"byteLength":96,
			"byteOffset":113608,
			"target":34962
		},
		{
			"buffer":0,
			"byteLength":96,
			"byteOffset":113704,
			"target":34962
		},
		{
			"buffer":0,
			"byteLength":32,
			"byteOffset":113800,
			"target":34962
		},
		{
			"buffer":0,
			"byteLength":128,
			"byteOffset":113832,
			"target":34962
		},
		{
			"buffer":0,
			"byteLength":36,
			"byteOffset":113960,
			"target":34963
		},
		{
			"buffer":0,
			"byteLength":36,
			"byteOffset":113996,
			"target":34962
		},
		{
			"buffer":0,
			"byteLength":36,
			"byteOffset":114032,
			"target":34962
		},
		{
			"buffer":0,
			"byteLength":24,
			"byteOffset":114068,
			"target":34962
		},
		{
			"buffer":0,
			"byteLength":24,
			"byteOffset":114092,
			"target":34962
		},
		{
			"buffer":0,
			"byteLength":36,
			"byteOffset":114116,
			"target":34962
		},
		{
			"buffer":0,
			"byteLength":36,
			"byteOffset":114152,
			"target":34962
		},
		{
			"buffer":0,
			"byteLength":12,
			"byteOffset":114188,
			"target":34962
		},
		{
			"buffer":0,
			"byteLength":48,
			"byteOffset":114200,
			"target":34962
		},
		{
			"buffer":0,
			"byteLength":1856,
			"byteOffset":114248
		}
	],
	"samplers":[
		{
			"magFilter":9729,
			"minFilter":9987,
			"wrapS":33071,
			"wrapT":33071
		}
	],
	"buffers":[
		{
			"byteLength":116104,
			"uri":"Wario.bin"
		}
	]
}
