{
	"asset":{
		"generator":"Khronos glTF Blender I/O v4.2.69",
		"version":"2.0"
	},
	"scene":0,
	"scenes":[
		{
			"name":"Scene",
			"nodes":[
				30
			]
		}
	],
	"nodes":[
		{
			"name":"M_foot_R",
			"rotation":[
				5.178094397706445e-09,
				-4.661160346586257e-12,
				-4.972144961357117e-05,
				1
			],
			"translation":[
				-0.0020116036757826805,
				-7.195398211479187e-06,
				-1.2695090845227242e-06
			]
		},
		{
			"children":[
				0
			],
			"name":"jnt_foot_R",
			"rotation":[
				2.4359337658097502e-08,
				-6.139089236967266e-12,
				-1,
				3.7621017412448055e-12
			],
			"translation":[
				-3.795255906879902e-06,
				-4.129484295845032e-06,
				-4.925532266497612e-07
			]
		},
		{
			"children":[
				1
			],
			"name":"chn_foot_R",
			"rotation":[
				-9.549694368615746e-12,
				3.410605131648481e-13,
				-7.447911620772629e-09,
				1
			],
			"translation":[
				1.4827919006347656,
				-20.191116333007812,
				3.574707079678774e-05
			]
		},
		{
			"children":[
				2
			],
			"name":"jnt_leg_R2",
			"rotation":[
				4.235484141190682e-08,
				-9.548687103233533e-07,
				0.05390327423810959,
				0.9985461831092834
			],
			"scale":[
				0.9999999403953552,
				1,
				1
			],
			"translation":[
				20.804288864135742,
				5.612964741885662e-06,
				4.790823732037097e-05
			]
		},
		{
			"children":[
				3
			],
			"name":"jnt_leg_R1",
			"rotation":[
				-1.838028964584737e-07,
				-2.4189285241504876e-08,
				-0.017256470397114754,
				0.9998511075973511
			],
			"translation":[
				8.017106056213379,
				2.238813638687134,
				-11.28007984161377
			]
		},
		{
			"name":"M_foot_L",
			"rotation":[
				5.176389095140621e-09,
				6.821210263296962e-13,
				-4.9717724323272705e-05,
				1
			],
			"translation":[
				-0.0020134111400693655,
				-4.839734174311161e-06,
				-8.421484380960464e-07
			]
		},
		{
			"children":[
				5
			],
			"name":"jnt_foot_L",
			"rotation":[
				2.435569967929041e-08,
				-6.139089236967266e-12,
				-1,
				3.7618796966398804e-12
			],
			"translation":[
				-2.9675429686903954e-06,
				-6.246729753911495e-06,
				-6.495974957942963e-08
			]
		},
		{
			"children":[
				6
			],
			"name":"chn_foot_L",
			"rotation":[
				-1.9326762412674725e-12,
				3.865352482534945e-12,
				-3.72262198844453e-09,
				1
			],
			"translation":[
				1.4827948808670044,
				-20.191116333007812,
				-4.3934560380876064e-05
			]
		},
		{
			"children":[
				7
			],
			"name":"jnt_leg_L2",
			"rotation":[
				6.523853812723246e-08,
				-9.561044862493873e-07,
				0.05390327423810959,
				0.9985461831092834
			],
			"scale":[
				0.9999999403953552,
				1,
				1
			],
			"translation":[
				20.80428695678711,
				3.6422861739993095e-06,
				4.6447457862086594e-05
			]
		},
		{
			"children":[
				8
			],
			"name":"jnt_leg_L1",
			"rotation":[
				-2.0672013079092721e-07,
				-2.379632491056327e-08,
				-0.017256470397114754,
				0.9998511075973511
			],
			"translation":[
				8.017062187194824,
				2.238806962966919,
				11.280115127563477
			]
		},
		{
			"children":[
				4,
				9
			],
			"name":"jnt_waist",
			"rotation":[
				-0.499999463558197,
				0.4999518096446991,
				-0.500000536441803,
				0.5000481009483337
			],
			"scale":[
				0.9999999403953552,
				0.9999998211860657,
				0.9999998807907104
			],
			"translation":[
				-5.507088931331015e-18,
				3.814697265625e-06,
				-4.547473508864641e-13
			]
		},
		{
			"name":"M_hand1_R",
			"rotation":[
				-2.472688937285583e-12,
				3.069544618483633e-12,
				-3.6788300405987684e-08,
				1
			],
			"scale":[
				1,
				0.9999999403953552,
				0.9999999403953552
			],
			"translation":[
				1.0346993803977966e-06,
				1.6549602150917053e-06,
				5.5618875194340944e-06
			]
		},
		{
			"children":[
				11
			],
			"name":"jnt_hand_R",
			"rotation":[
				4.030245861486037e-07,
				1.0496282811800484e-06,
				0.11860324442386627,
				0.9929417371749878
			],
			"scale":[
				1,
				1.0000001192092896,
				1
			],
			"translation":[
				11.997604370117188,
				0.005378656089305878,
				-1.9114522729068995e-05
			]
		},
		{
			"children":[
				12
			],
			"name":"jnt_arm_R2",
			"rotation":[
				-5.794506432721391e-05,
				-3.7895522837061435e-05,
				-0.2056100070476532,
				0.9786340594291687
			],
			"scale":[
				1,
				1.0000001192092896,
				1
			],
			"translation":[
				13.656604766845703,
				-3.8847247196827084e-07,
				5.607545972452499e-06
			]
		},
		{
			"children":[
				13
			],
			"name":"jnt_arm_R1",
			"rotation":[
				0.7005776762962341,
				0.09562326222658157,
				0.20487818121910095,
				0.6768101453781128
			],
			"scale":[
				0.9999998807907104,
				0.9999999403953552,
				0.9999998807907104
			],
			"translation":[
				17.779993057250977,
				-0.4237731993198395,
				3.396158218383789
			]
		},
		{
			"children":[
				14
			],
			"name":"jnt_sldr_R",
			"rotation":[
				0.38192930817604065,
				0.5950884819030762,
				-0.5950871706008911,
				0.3819306492805481
			],
			"scale":[
				1,
				0.9999999403953552,
				1
			],
			"translation":[
				29.89669418334961,
				4.768399230670184e-05,
				0.0484105721116066
			]
		},
		{
			"name":"eff_sldr_L",
			"rotation":[
				4.072717274539173e-09,
				-1.7338606994599104e-08,
				1.1920515419205913e-07,
				1
			],
			"scale":[
				1,
				1,
				1.0000001192092896
			],
			"translation":[
				17.700597763061523,
				4.847485342907021e-06,
				-1.6607576981186867e-05
			]
		},
		{
			"name":"M_hand1_L",
			"rotation":[
				3.84708541065204e-13,
				-2.574607194105738e-13,
				-1.8160751125151364e-08,
				1
			],
			"translation":[
				-3.2082898542284966e-06,
				-9.828495421970729e-07,
				-2.724669684539549e-06
			]
		},
		{
			"children":[
				17
			],
			"name":"jnt_hand_L",
			"rotation":[
				1.905572617033613e-06,
				-1.1251929663558258e-06,
				0.1186031922698021,
				0.9929417371749878
			],
			"scale":[
				1,
				0.9999999403953552,
				1
			],
			"translation":[
				11.99759578704834,
				0.005376884713768959,
				4.381706276035402e-06
			]
		},
		{
			"children":[
				18
			],
			"name":"jnt_arm_L2",
			"rotation":[
				-3.051194426006987e-07,
				6.566468186974816e-07,
				-0.2054693102836609,
				0.9786635637283325
			],
			"scale":[
				0.9999999403953552,
				1,
				1
			],
			"translation":[
				13.65660285949707,
				-5.735524155170424e-06,
				7.3777864599833265e-06
			]
		},
		{
			"children":[
				19
			],
			"name":"jnt_arm_L1",
			"rotation":[
				-0.7005779147148132,
				-0.0956229716539383,
				0.2048778086900711,
				0.6768101453781128
			],
			"scale":[
				0.9999999403953552,
				1.0000001192092896,
				0.9999999403953552
			],
			"translation":[
				17.780000686645508,
				-0.42376524209976196,
				-3.396146297454834
			]
		},
		{
			"children":[
				16,
				20
			],
			"name":"jnt_sldr_L",
			"rotation":[
				-0.3819292485713959,
				-0.5950884222984314,
				-0.5950871706008911,
				0.38193076848983765
			],
			"scale":[
				0.9999998211860657,
				0.9999998211860657,
				1
			],
			"translation":[
				29.896686553955078,
				4.959099896950647e-05,
				-0.04841412976384163
			]
		},
		{
			"name":"M_head_cap1",
			"rotation":[
				1.3697437281634528e-12,
				2.8688550202105034e-08,
				-4.1777336798332065e-12,
				1
			],
			"translation":[
				5.519229489436839e-06,
				4.925774192088284e-06,
				-1.266926119569689e-09
			]
		},
		{
			"name":"M_head",
			"rotation":[
				1.3697437281634528e-12,
				2.8688550202105034e-08,
				-4.1777336798332065e-12,
				1
			],
			"translation":[
				5.519229489436839e-06,
				4.925774192088284e-06,
				-1.266926119569689e-09
			]
		},
		{
			"children":[
				22,
				23
			],
			"name":"jnt_head",
			"rotation":[
				1.913939058795222e-06,
				-1,
				1.2514465197455138e-06,
				7.549790126404332e-08
			],
			"translation":[
				2.999929189682007,
				38.999996185302734,
				-1.7843717614596244e-07
			]
		},
		{
			"children":[
				15,
				21,
				24
			],
			"name":"jnt_chest",
			"rotation":[
				7.850700534106636e-09,
				-3.429537542842809e-08,
				0.7070716619491577,
				0.7071418762207031
			],
			"translation":[
				4.656613428188905e-10,
				0,
				5.860695077435389e-17
			]
		},
		{
			"children":[
				25
			],
			"name":"chn_chest",
			"rotation":[
				1.256233293523432e-15,
				0.707004725933075,
				1.1799889992048754e-15,
				0.7072088718414307
			],
			"scale":[
				0.9999999403953552,
				1,
				0.9999999403953552
			],
			"translation":[
				3.0195065038511873e-21,
				-3.814697265625e-06,
				0
			]
		},
		{
			"children":[
				10,
				26
			],
			"name":"center",
			"rotation":[
				-3.339083160360315e-14,
				3.197442310920451e-14,
				-1.127209279704311e-21,
				1
			],
			"translation":[
				-1.3552527156068805e-20,
				57.99999237060547,
				2.2737367544323206e-13
			]
		},
		{
			"children":[
				27
			],
			"name":"mdl1",
			"rotation":[
				-8.557136332854043e-09,
				1.7114272665708086e-08,
				-2.928983286277023e-16,
				1
			]
		},
		{
			"mesh":0,
			"name":"Mesh_0",
			"skin":0
		},
		{
			"children":[
				29,
				28
			],
			"name":"Armature"
		}
	],
	"materials":[
		{
			"name":"_mat_head",
			"pbrMetallicRoughness":{
				"baseColorTexture":{
					"index":0
				},
				"metallicFactor":0
			}
		},
		{
			"name":"_mat_head(3)",
			"pbrMetallicRoughness":{
				"baseColorTexture":{
					"index":1
				},
				"metallicFactor":0
			}
		},
		{
			"name":"_mat_head(4)",
			"pbrMetallicRoughness":{
				"baseColorTexture":{
					"index":2
				},
				"metallicFactor":0
			}
		},
		{
			"doubleSided":true,
			"name":"_mat_head(2)",
			"pbrMetallicRoughness":{
				"baseColorTexture":{
					"index":3
				},
				"metallicFactor":0
			}
		},
		{
			"name":"_mat_head(5)",
			"pbrMetallicRoughness":{
				"baseColorTexture":{
					"index":4
				},
				"metallicFactor":0
			}
		},
		{
			"name":"_mat_head(6)",
			"pbrMetallicRoughness":{
				"baseColorTexture":{
					"index":5
				},
				"metallicFactor":0
			}
		},
		{
			"name":"_mat_head(7)",
			"pbrMetallicRoughness":{
				"baseColorTexture":{
					"index":6
				},
				"metallicFactor":0
			}
		},
		{
			"name":"_mat_eye_L",
			"pbrMetallicRoughness":{
				"baseColorTexture":{
					"index":7
				},
				"metallicFactor":0
			}
		},
		{
			"name":"_mat_head(8)",
			"pbrMetallicRoughness":{
				"baseColorTexture":{
					"index":8
				},
				"metallicFactor":0
			}
		},
		{
			"name":"_mat_eye_R",
			"pbrMetallicRoughness":{
				"baseColorTexture":{
					"index":9
				},
				"metallicFactor":0
			}
		},
		{
			"name":"_mat_mouse",
			"pbrMetallicRoughness":{
				"baseColorTexture":{
					"index":10
				},
				"metallicFactor":0
			}
		}
	],
	"meshes":[
		{
			"name":"Mesh_0",
			"primitives":[
				{
					"attributes":{
						"POSITION":0,
						"NORMAL":1,
						"TEXCOORD_0":2,
						"TEXCOORD_1":3,
						"JOINTS_0":4,
						"WEIGHTS_0":5
					},
					"indices":6,
					"material":0
				},
				{
					"attributes":{
						"POSITION":7,
						"NORMAL":8,
						"TEXCOORD_0":9,
						"TEXCOORD_1":10,
						"JOINTS_0":11,
						"WEIGHTS_0":12
					},
					"indices":13,
					"material":1
				},
				{
					"attributes":{
						"POSITION":14,
						"NORMAL":15,
						"TEXCOORD_0":16,
						"TEXCOORD_1":17,
						"JOINTS_0":18,
						"WEIGHTS_0":19
					},
					"indices":20,
					"material":2
				},
				{
					"attributes":{
						"POSITION":21,
						"NORMAL":22,
						"TEXCOORD_0":23,
						"TEXCOORD_1":24,
						"JOINTS_0":25,
						"WEIGHTS_0":26
					},
					"indices":27,
					"material":3
				},
				{
					"attributes":{
						"POSITION":28,
						"NORMAL":29,
						"TEXCOORD_0":30,
						"TEXCOORD_1":31,
						"JOINTS_0":32,
						"WEIGHTS_0":33
					},
					"indices":34,
					"material":4
				},
				{
					"attributes":{
						"POSITION":35,
						"NORMAL":36,
						"TEXCOORD_0":37,
						"TEXCOORD_1":38,
						"JOINTS_0":39,
						"WEIGHTS_0":40
					},
					"indices":41,
					"material":5
				},
				{
					"attributes":{
						"POSITION":42,
						"NORMAL":43,
						"TEXCOORD_0":44,
						"TEXCOORD_1":45,
						"JOINTS_0":46,
						"WEIGHTS_0":47
					},
					"indices":27,
					"material":6
				},
				{
					"attributes":{
						"POSITION":48,
						"NORMAL":49,
						"TEXCOORD_0":50,
						"TEXCOORD_1":51,
						"JOINTS_0":52,
						"WEIGHTS_0":53
					},
					"indices":54,
					"material":7
				},
				{
					"attributes":{
						"POSITION":55,
						"NORMAL":56,
						"TEXCOORD_0":57,
						"TEXCOORD_1":58,
						"JOINTS_0":59,
						"WEIGHTS_0":60
					},
					"indices":61,
					"material":8
				},
				{
					"attributes":{
						"POSITION":62,
						"NORMAL":63,
						"TEXCOORD_0":64,
						"TEXCOORD_1":65,
						"JOINTS_0":66,
						"WEIGHTS_0":67
					},
					"indices":68,
					"material":9
				},
				{
					"attributes":{
						"POSITION":69,
						"NORMAL":70,
						"TEXCOORD_0":71,
						"TEXCOORD_1":72,
						"JOINTS_0":73,
						"WEIGHTS_0":74
					},
					"indices":27,
					"material":10
				}
			]
		}
	],
	"textures":[
		{
			"sampler":0,
			"source":0
		},
		{
			"sampler":0,
			"source":0
		},
		{
			"sampler":0,
			"source":0
		},
		{
			"sampler":0,
			"source":0
		},
		{
			"sampler":0,
			"source":0
		},
		{
			"sampler":0,
			"source":0
		},
		{
			"sampler":0,
			"source":0
		},
		{
			"sampler":0,
			"source":1
		},
		{
			"sampler":0,
			"source":0
		},
		{
			"sampler":0,
			"source":1
		},
		{
			"sampler":0,
			"source":2
		}
	],
	"images":[
		{
			"mimeType":"image/png",
			"name":"Yoshi_0",
			"uri":"Yoshi_0.png"
		},
		{
			"mimeType":"image/png",
			"name":"Yoshi_1",
			"uri":"Yoshi_1.png"
		},
		{
			"mimeType":"image/png",
			"name":"Yoshi_2",
			"uri":"Yoshi_2.png"
		}
	],
	"skins":[
		{
			"inverseBindMatrices":75,
			"joints":[
				28,
				27,
				10,
				4,
				3,
				2,
				1,
				0,
				9,
				8,
				7,
				6,
				5,
				26,
				25,
				15,
				14,
				13,
				12,
				11,
				21,
				16,
				20,
				19,
				18,
				17,
				24,
				22,
				23
			],
			"name":"Armature"
		}
	],
	"accessors":[
		{
			"bufferView":0,
			"componentType":5126,
			"count":454,
			"max":[
				40.159969329833984,
				98.944091796875,
				25.994915008544922
			],
			"min":[
				-40.158599853515625,
				18.684200286865234,
				-44.99150085449219
			],
			"type":"VEC3"
		},
		{
			"bufferView":1,
			"componentType":5126,
			"count":454,
			"type":"VEC3"
		},
		{
			"bufferView":2,
			"componentType":5126,
			"count":454,
			"type":"VEC2"
		},
		{
			"bufferView":3,
			"componentType":5126,
			"count":454,
			"type":"VEC2"
		},
		{
			"bufferView":4,
			"componentType":5121,
			"count":454,
			"type":"VEC4"
		},
		{
			"bufferView":5,
			"componentType":5126,
			"count":454,
			"type":"VEC4"
		},
		{
			"bufferView":6,
			"componentType":5123,
			"count":2124,
			"type":"SCALAR"
		},
		{
			"bufferView":7,
			"componentType":5126,
			"count":125,
			"max":[
				-5.420549392700195,
				57.02577209472656,
				33.86244583129883
			],
			"min":[
				-33.47819900512695,
				10.404296875,
				2.1531996726989746
			],
			"type":"VEC3"
		},
		{
			"bufferView":8,
			"componentType":5126,
			"count":125,
			"type":"VEC3"
		},
		{
			"bufferView":9,
			"componentType":5126,
			"count":125,
			"type":"VEC2"
		},
		{
			"bufferView":10,
			"componentType":5126,
			"count":125,
			"type":"VEC2"
		},
		{
			"bufferView":11,
			"componentType":5121,
			"count":125,
			"type":"VEC4"
		},
		{
			"bufferView":12,
			"componentType":5126,
			"count":125,
			"type":"VEC4"
		},
		{
			"bufferView":13,
			"componentType":5123,
			"count":468,
			"type":"SCALAR"
		},
		{
			"bufferView":14,
			"componentType":5126,
			"count":123,
			"max":[
				33.48257827758789,
				57.02956008911133,
				33.86623764038086
			],
			"min":[
				5.424929141998291,
				10.40796947479248,
				2.1569297313690186
			],
			"type":"VEC3"
		},
		{
			"bufferView":15,
			"componentType":5126,
			"count":123,
			"type":"VEC3"
		},
		{
			"bufferView":16,
			"componentType":5126,
			"count":123,
			"type":"VEC2"
		},
		{
			"bufferView":17,
			"componentType":5126,
			"count":123,
			"type":"VEC2"
		},
		{
			"bufferView":18,
			"componentType":5121,
			"count":123,
			"type":"VEC4"
		},
		{
			"bufferView":19,
			"componentType":5126,
			"count":123,
			"type":"VEC4"
		},
		{
			"bufferView":20,
			"componentType":5123,
			"count":468,
			"type":"SCALAR"
		},
		{
			"bufferView":21,
			"componentType":5126,
			"count":3,
			"max":[
				1.6522746086120605,
				83.46443939208984,
				1.3047360181808472
			],
			"min":[
				-1.7307060956954956,
				77.6798095703125,
				-3.5040645599365234
			],
			"type":"VEC3"
		},
		{
			"bufferView":22,
			"componentType":5126,
			"count":3,
			"type":"VEC3"
		},
		{
			"bufferView":23,
			"componentType":5126,
			"count":3,
			"type":"VEC2"
		},
		{
			"bufferView":24,
			"componentType":5126,
			"count":3,
			"type":"VEC2"
		},
		{
			"bufferView":25,
			"componentType":5121,
			"count":3,
			"type":"VEC4"
		},
		{
			"bufferView":26,
			"componentType":5126,
			"count":3,
			"type":"VEC4"
		},
		{
			"bufferView":27,
			"componentType":5123,
			"count":3,
			"type":"SCALAR"
		},
		{
			"bufferView":28,
			"componentType":5126,
			"count":152,
			"max":[
				-35.346893310546875,
				96.27406311035156,
				21.4957218170166
			],
			"min":[
				-67.66800689697266,
				75.87934112548828,
				-10.558573722839355
			],
			"type":"VEC3"
		},
		{
			"bufferView":29,
			"componentType":5126,
			"count":152,
			"type":"VEC3"
		},
		{
			"bufferView":30,
			"componentType":5126,
			"count":152,
			"type":"VEC2"
		},
		{
			"bufferView":31,
			"componentType":5126,
			"count":152,
			"type":"VEC2"
		},
		{
			"bufferView":32,
			"componentType":5121,
			"count":152,
			"type":"VEC4"
		},
		{
			"bufferView":33,
			"componentType":5126,
			"count":152,
			"type":"VEC4"
		},
		{
			"bufferView":34,
			"componentType":5123,
			"count":684,
			"type":"SCALAR"
		},
		{
			"bufferView":35,
			"componentType":5126,
			"count":152,
			"max":[
				69.86228942871094,
				95.79045867919922,
				20.519058227539062
			],
			"min":[
				35.797122955322266,
				75.1136474609375,
				-10.53738784790039
			],
			"type":"VEC3"
		},
		{
			"bufferView":36,
			"componentType":5126,
			"count":152,
			"type":"VEC3"
		},
		{
			"bufferView":37,
			"componentType":5126,
			"count":152,
			"type":"VEC2"
		},
		{
			"bufferView":38,
			"componentType":5126,
			"count":152,
			"type":"VEC2"
		},
		{
			"bufferView":39,
			"componentType":5121,
			"count":152,
			"type":"VEC4"
		},
		{
			"bufferView":40,
			"componentType":5126,
			"count":152,
			"type":"VEC4"
		},
		{
			"bufferView":41,
			"componentType":5123,
			"count":684,
			"type":"SCALAR"
		},
		{
			"bufferView":42,
			"componentType":5126,
			"count":3,
			"max":[
				4.786185264587402,
				62.297489166259766,
				26.92184066772461
			],
			"min":[
				0.3426329791545868,
				50.89516067504883,
				15.038978576660156
			],
			"type":"VEC3"
		},
		{
			"bufferView":43,
			"componentType":5126,
			"count":3,
			"type":"VEC3"
		},
		{
			"bufferView":44,
			"componentType":5126,
			"count":3,
			"type":"VEC2"
		},
		{
			"bufferView":45,
			"componentType":5126,
			"count":3,
			"type":"VEC2"
		},
		{
			"bufferView":46,
			"componentType":5121,
			"count":3,
			"type":"VEC4"
		},
		{
			"bufferView":47,
			"componentType":5126,
			"count":3,
			"type":"VEC4"
		},
		{
			"bufferView":48,
			"componentType":5126,
			"count":32,
			"max":[
				0.005179131869226694,
				56.308349609375,
				6.119095802307129
			],
			"min":[
				-19.90171241760254,
				37.880523681640625,
				-21.581867218017578
			],
			"type":"VEC3"
		},
		{
			"bufferView":49,
			"componentType":5126,
			"count":32,
			"type":"VEC3"
		},
		{
			"bufferView":50,
			"componentType":5126,
			"count":32,
			"type":"VEC2"
		},
		{
			"bufferView":51,
			"componentType":5126,
			"count":32,
			"type":"VEC2"
		},
		{
			"bufferView":52,
			"componentType":5121,
			"count":32,
			"type":"VEC4"
		},
		{
			"bufferView":53,
			"componentType":5126,
			"count":32,
			"type":"VEC4"
		},
		{
			"bufferView":54,
			"componentType":5123,
			"count":123,
			"type":"SCALAR"
		},
		{
			"bufferView":55,
			"componentType":5126,
			"count":310,
			"max":[
				28.439176559448242,
				92.37060546875,
				47.82078170776367
			],
			"min":[
				-28.454439163208008,
				-1.7989131212234497,
				-23.594310760498047
			],
			"type":"VEC3"
		},
		{
			"bufferView":56,
			"componentType":5126,
			"count":310,
			"type":"VEC3"
		},
		{
			"bufferView":57,
			"componentType":5126,
			"count":310,
			"type":"VEC2"
		},
		{
			"bufferView":58,
			"componentType":5126,
			"count":310,
			"type":"VEC2"
		},
		{
			"bufferView":59,
			"componentType":5121,
			"count":310,
			"type":"VEC4"
		},
		{
			"bufferView":60,
			"componentType":5126,
			"count":310,
			"type":"VEC4"
		},
		{
			"bufferView":61,
			"componentType":5123,
			"count":1518,
			"type":"SCALAR"
		},
		{
			"bufferView":62,
			"componentType":5126,
			"count":32,
			"max":[
				19.90442657470703,
				56.30835723876953,
				6.128173828125
			],
			"min":[
				-0.0008913533529266715,
				37.880523681640625,
				-21.577190399169922
			],
			"type":"VEC3"
		},
		{
			"bufferView":63,
			"componentType":5126,
			"count":32,
			"type":"VEC3"
		},
		{
			"bufferView":64,
			"componentType":5126,
			"count":32,
			"type":"VEC2"
		},
		{
			"bufferView":65,
			"componentType":5126,
			"count":32,
			"type":"VEC2"
		},
		{
			"bufferView":66,
			"componentType":5121,
			"count":32,
			"type":"VEC4"
		},
		{
			"bufferView":67,
			"componentType":5126,
			"count":32,
			"type":"VEC4"
		},
		{
			"bufferView":68,
			"componentType":5123,
			"count":123,
			"type":"SCALAR"
		},
		{
			"bufferView":69,
			"componentType":5126,
			"count":3,
			"max":[
				7.12340784072876,
				58.79714584350586,
				28.447277069091797
			],
			"min":[
				-3.5500335693359375,
				55.051361083984375,
				17.92616081237793
			],
			"type":"VEC3"
		},
		{
			"bufferView":70,
			"componentType":5126,
			"count":3,
			"type":"VEC3"
		},
		{
			"bufferView":71,
			"componentType":5126,
			"count":3,
			"type":"VEC2"
		},
		{
			"bufferView":72,
			"componentType":5126,
			"count":3,
			"type":"VEC2"
		},
		{
			"bufferView":73,
			"componentType":5121,
			"count":3,
			"type":"VEC4"
		},
		{
			"bufferView":74,
			"componentType":5126,
			"count":3,
			"type":"VEC4"
		},
		{
			"bufferView":75,
			"componentType":5126,
			"count":29,
			"type":"MAT4"
		}
	],
	"bufferViews":[
		{
			"buffer":0,
			"byteLength":5448,
			"byteOffset":0,
			"target":34962
		},
		{
			"buffer":0,
			"byteLength":5448,
			"byteOffset":5448,
			"target":34962
		},
		{
			"buffer":0,
			"byteLength":3632,
			"byteOffset":10896,
			"target":34962
		},
		{
			"buffer":0,
			"byteLength":3632,
			"byteOffset":14528,
			"target":34962
		},
		{
			"buffer":0,
			"byteLength":1816,
			"byteOffset":18160,
			"target":34962
		},
		{
			"buffer":0,
			"byteLength":7264,
			"byteOffset":19976,
			"target":34962
		},
		{
			"buffer":0,
			"byteLength":4248,
			"byteOffset":27240,
			"target":34963
		},
		{
			"buffer":0,
			"byteLength":1500,
			"byteOffset":31488,
			"target":34962
		},
		{
			"buffer":0,
			"byteLength":1500,
			"byteOffset":32988,
			"target":34962
		},
		{
			"buffer":0,
			"byteLength":1000,
			"byteOffset":34488,
			"target":34962
		},
		{
			"buffer":0,
			"byteLength":1000,
			"byteOffset":35488,
			"target":34962
		},
		{
			"buffer":0,
			"byteLength":500,
			"byteOffset":36488,
			"target":34962
		},
		{
			"buffer":0,
			"byteLength":2000,
			"byteOffset":36988,
			"target":34962
		},
		{
			"buffer":0,
			"byteLength":936,
			"byteOffset":38988,
			"target":34963
		},
		{
			"buffer":0,
			"byteLength":1476,
			"byteOffset":39924,
			"target":34962
		},
		{
			"buffer":0,
			"byteLength":1476,
			"byteOffset":41400,
			"target":34962
		},
		{
			"buffer":0,
			"byteLength":984,
			"byteOffset":42876,
			"target":34962
		},
		{
			"buffer":0,
			"byteLength":984,
			"byteOffset":43860,
			"target":34962
		},
		{
			"buffer":0,
			"byteLength":492,
			"byteOffset":44844,
			"target":34962
		},
		{
			"buffer":0,
			"byteLength":1968,
			"byteOffset":45336,
			"target":34962
		},
		{
			"buffer":0,
			"byteLength":936,
			"byteOffset":47304,
			"target":34963
		},
		{
			"buffer":0,
			"byteLength":36,
			"byteOffset":48240,
			"target":34962
		},
		{
			"buffer":0,
			"byteLength":36,
			"byteOffset":48276,
			"target":34962
		},
		{
			"buffer":0,
			"byteLength":24,
			"byteOffset":48312,
			"target":34962
		},
		{
			"buffer":0,
			"byteLength":24,
			"byteOffset":48336,
			"target":34962
		},
		{
			"buffer":0,
			"byteLength":12,
			"byteOffset":48360,
			"target":34962
		},
		{
			"buffer":0,
			"byteLength":48,
			"byteOffset":48372,
			"target":34962
		},
		{
			"buffer":0,
			"byteLength":6,
			"byteOffset":48420,
			"target":34963
		},
		{
			"buffer":0,
			"byteLength":1824,
			"byteOffset":48428,
			"target":34962
		},
		{
			"buffer":0,
			"byteLength":1824,
			"byteOffset":50252,
			"target":34962
		},
		{
			"buffer":0,
			"byteLength":1216,
			"byteOffset":52076,
			"target":34962
		},
		{
			"buffer":0,
			"byteLength":1216,
			"byteOffset":53292,
			"target":34962
		},
		{
			"buffer":0,
			"byteLength":608,
			"byteOffset":54508,
			"target":34962
		},
		{
			"buffer":0,
			"byteLength":2432,
			"byteOffset":55116,
			"target":34962
		},
		{
			"buffer":0,
			"byteLength":1368,
			"byteOffset":57548,
			"target":34963
		},
		{
			"buffer":0,
			"byteLength":1824,
			"byteOffset":58916,
			"target":34962
		},
		{
			"buffer":0,
			"byteLength":1824,
			"byteOffset":60740,
			"target":34962
		},
		{
			"buffer":0,
			"byteLength":1216,
			"byteOffset":62564,
			"target":34962
		},
		{
			"buffer":0,
			"byteLength":1216,
			"byteOffset":63780,
			"target":34962
		},
		{
			"buffer":0,
			"byteLength":608,
			"byteOffset":64996,
			"target":34962
		},
		{
			"buffer":0,
			"byteLength":2432,
			"byteOffset":65604,
			"target":34962
		},
		{
			"buffer":0,
			"byteLength":1368,
			"byteOffset":68036,
			"target":34963
		},
		{
			"buffer":0,
			"byteLength":36,
			"byteOffset":69404,
			"target":34962
		},
		{
			"buffer":0,
			"byteLength":36,
			"byteOffset":69440,
			"target":34962
		},
		{
			"buffer":0,
			"byteLength":24,
			"byteOffset":69476,
			"target":34962
		},
		{
			"buffer":0,
			"byteLength":24,
			"byteOffset":69500,
			"target":34962
		},
		{
			"buffer":0,
			"byteLength":12,
			"byteOffset":69524,
			"target":34962
		},
		{
			"buffer":0,
			"byteLength":48,
			"byteOffset":69536,
			"target":34962
		},
		{
			"buffer":0,
			"byteLength":384,
			"byteOffset":69584,
			"target":34962
		},
		{
			"buffer":0,
			"byteLength":384,
			"byteOffset":69968,
			"target":34962
		},
		{
			"buffer":0,
			"byteLength":256,
			"byteOffset":70352,
			"target":34962
		},
		{
			"buffer":0,
			"byteLength":256,
			"byteOffset":70608,
			"target":34962
		},
		{
			"buffer":0,
			"byteLength":128,
			"byteOffset":70864,
			"target":34962
		},
		{
			"buffer":0,
			"byteLength":512,
			"byteOffset":70992,
			"target":34962
		},
		{
			"buffer":0,
			"byteLength":246,
			"byteOffset":71504,
			"target":34963
		},
		{
			"buffer":0,
			"byteLength":3720,
			"byteOffset":71752,
			"target":34962
		},
		{
			"buffer":0,
			"byteLength":3720,
			"byteOffset":75472,
			"target":34962
		},
		{
			"buffer":0,
			"byteLength":2480,
			"byteOffset":79192,
			"target":34962
		},
		{
			"buffer":0,
			"byteLength":2480,
			"byteOffset":81672,
			"target":34962
		},
		{
			"buffer":0,
			"byteLength":1240,
			"byteOffset":84152,
			"target":34962
		},
		{
			"buffer":0,
			"byteLength":4960,
			"byteOffset":85392,
			"target":34962
		},
		{
			"buffer":0,
			"byteLength":3036,
			"byteOffset":90352,
			"target":34963
		},
		{
			"buffer":0,
			"byteLength":384,
			"byteOffset":93388,
			"target":34962
		},
		{
			"buffer":0,
			"byteLength":384,
			"byteOffset":93772,
			"target":34962
		},
		{
			"buffer":0,
			"byteLength":256,
			"byteOffset":94156,
			"target":34962
		},
		{
			"buffer":0,
			"byteLength":256,
			"byteOffset":94412,
			"target":34962
		},
		{
			"buffer":0,
			"byteLength":128,
			"byteOffset":94668,
			"target":34962
		},
		{
			"buffer":0,
			"byteLength":512,
			"byteOffset":94796,
			"target":34962
		},
		{
			"buffer":0,
			"byteLength":246,
			"byteOffset":95308,
			"target":34963
		},
		{
			"buffer":0,
			"byteLength":36,
			"byteOffset":95556,
			"target":34962
		},
		{
			"buffer":0,
			"byteLength":36,
			"byteOffset":95592,
			"target":34962
		},
		{
			"buffer":0,
			"byteLength":24,
			"byteOffset":95628,
			"target":34962
		},
		{
			"buffer":0,
			"byteLength":24,
			"byteOffset":95652,
			"target":34962
		},
		{
			"buffer":0,
			"byteLength":12,
			"byteOffset":95676,
			"target":34962
		},
		{
			"buffer":0,
			"byteLength":48,
			"byteOffset":95688,
			"target":34962
		},
		{
			"buffer":0,
			"byteLength":1856,
			"byteOffset":95736
		}
	],
	"samplers":[
		{
			"magFilter":9729,
			"minFilter":9987,
			"wrapS":33071,
			"wrapT":33071
		}
	],
	"buffers":[
		{
			"byteLength":97592,
			"uri":"Yoshi.bin"
		}
	]
}
